<?xml version="1.0" encoding="utf-8"?>
<svg xmlns="http://www.w3.org/2000/svg" xmlns:xlink="http://www.w3.org/1999/xlink" width="600" height="400" viewBox="0 0 2400 1600">
<defs>
  <clipPath id="clip160">
    <rect x="0" y="0" width="2400" height="1600"/>
  </clipPath>
</defs>
<path clip-path="url(#clip160)" d="
M0 1600 L2400 1600 L2400 0 L0 0  Z
  " fill="#ffffff" fill-rule="evenodd" fill-opacity="1"/>
<defs>
  <clipPath id="clip161">
    <rect x="480" y="0" width="1681" height="1600"/>
  </clipPath>
</defs>
<path clip-path="url(#clip160)" d="
M250.028 1423.18 L2352.76 1423.18 L2352.76 123.472 L250.028 123.472  Z
  " fill="#ffffff" fill-rule="evenodd" fill-opacity="1"/>
<defs>
  <clipPath id="clip162">
    <rect x="250" y="123" width="2104" height="1301"/>
  </clipPath>
</defs>
<polyline clip-path="url(#clip162)" style="stroke:#000000; stroke-linecap:butt; stroke-linejoin:round; stroke-width:2; stroke-opacity:0.1; fill:none" points="
  622.756,1423.18 622.756,123.472 
  "/>
<polyline clip-path="url(#clip162)" style="stroke:#000000; stroke-linecap:butt; stroke-linejoin:round; stroke-width:2; stroke-opacity:0.1; fill:none" points="
  1040.38,1423.18 1040.38,123.472 
  "/>
<polyline clip-path="url(#clip162)" style="stroke:#000000; stroke-linecap:butt; stroke-linejoin:round; stroke-width:2; stroke-opacity:0.1; fill:none" points="
  1458,1423.18 1458,123.472 
  "/>
<polyline clip-path="url(#clip162)" style="stroke:#000000; stroke-linecap:butt; stroke-linejoin:round; stroke-width:2; stroke-opacity:0.1; fill:none" points="
  1875.62,1423.18 1875.62,123.472 
  "/>
<polyline clip-path="url(#clip162)" style="stroke:#000000; stroke-linecap:butt; stroke-linejoin:round; stroke-width:2; stroke-opacity:0.1; fill:none" points="
  2293.24,1423.18 2293.24,123.472 
  "/>
<polyline clip-path="url(#clip160)" style="stroke:#000000; stroke-linecap:butt; stroke-linejoin:round; stroke-width:4; stroke-opacity:1; fill:none" points="
  250.028,1423.18 2352.76,1423.18 
  "/>
<polyline clip-path="url(#clip160)" style="stroke:#000000; stroke-linecap:butt; stroke-linejoin:round; stroke-width:4; stroke-opacity:1; fill:none" points="
  622.756,1423.18 622.756,1404.28 
  "/>
<polyline clip-path="url(#clip160)" style="stroke:#000000; stroke-linecap:butt; stroke-linejoin:round; stroke-width:4; stroke-opacity:1; fill:none" points="
  1040.38,1423.18 1040.38,1404.28 
  "/>
<polyline clip-path="url(#clip160)" style="stroke:#000000; stroke-linecap:butt; stroke-linejoin:round; stroke-width:4; stroke-opacity:1; fill:none" points="
  1458,1423.18 1458,1404.28 
  "/>
<polyline clip-path="url(#clip160)" style="stroke:#000000; stroke-linecap:butt; stroke-linejoin:round; stroke-width:4; stroke-opacity:1; fill:none" points="
  1875.62,1423.18 1875.62,1404.28 
  "/>
<polyline clip-path="url(#clip160)" style="stroke:#000000; stroke-linecap:butt; stroke-linejoin:round; stroke-width:4; stroke-opacity:1; fill:none" points="
  2293.24,1423.18 2293.24,1404.28 
  "/>
<path clip-path="url(#clip160)" d="M585.858 1454.1 Q582.247 1454.1 580.418 1457.66 Q578.613 1461.2 578.613 1468.33 Q578.613 1475.44 580.418 1479.01 Q582.247 1482.55 585.858 1482.55 Q589.492 1482.55 591.298 1479.01 Q593.126 1475.44 593.126 1468.33 Q593.126 1461.2 591.298 1457.66 Q589.492 1454.1 585.858 1454.1 M585.858 1450.39 Q591.668 1450.39 594.724 1455 Q597.802 1459.58 597.802 1468.33 Q597.802 1477.06 594.724 1481.67 Q591.668 1486.25 585.858 1486.25 Q580.048 1486.25 576.969 1481.67 Q573.914 1477.06 573.914 1468.33 Q573.914 1459.58 576.969 1455 Q580.048 1450.39 585.858 1450.39 Z" fill="#000000" fill-rule="evenodd" fill-opacity="1" /><path clip-path="url(#clip160)" d="M606.02 1479.7 L610.904 1479.7 L610.904 1485.58 L606.02 1485.58 L606.02 1479.7 Z" fill="#000000" fill-rule="evenodd" fill-opacity="1" /><path clip-path="url(#clip160)" d="M631.089 1454.1 Q627.478 1454.1 625.649 1457.66 Q623.844 1461.2 623.844 1468.33 Q623.844 1475.44 625.649 1479.01 Q627.478 1482.55 631.089 1482.55 Q634.723 1482.55 636.529 1479.01 Q638.358 1475.44 638.358 1468.33 Q638.358 1461.2 636.529 1457.66 Q634.723 1454.1 631.089 1454.1 M631.089 1450.39 Q636.899 1450.39 639.955 1455 Q643.034 1459.58 643.034 1468.33 Q643.034 1477.06 639.955 1481.67 Q636.899 1486.25 631.089 1486.25 Q625.279 1486.25 622.2 1481.67 Q619.145 1477.06 619.145 1468.33 Q619.145 1459.58 622.2 1455 Q625.279 1450.39 631.089 1450.39 Z" fill="#000000" fill-rule="evenodd" fill-opacity="1" /><path clip-path="url(#clip160)" d="M655.279 1481.64 L671.598 1481.64 L671.598 1485.58 L649.654 1485.58 L649.654 1481.64 Q652.316 1478.89 656.899 1474.26 Q661.506 1469.61 662.686 1468.27 Q664.932 1465.74 665.811 1464.01 Q666.714 1462.25 666.714 1460.56 Q666.714 1457.8 664.77 1456.07 Q662.848 1454.33 659.746 1454.33 Q657.547 1454.33 655.094 1455.09 Q652.663 1455.86 649.885 1457.41 L649.885 1452.69 Q652.709 1451.55 655.163 1450.97 Q657.617 1450.39 659.654 1450.39 Q665.024 1450.39 668.219 1453.08 Q671.413 1455.77 671.413 1460.26 Q671.413 1462.39 670.603 1464.31 Q669.816 1466.2 667.709 1468.8 Q667.131 1469.47 664.029 1472.69 Q660.927 1475.88 655.279 1481.64 Z" fill="#000000" fill-rule="evenodd" fill-opacity="1" /><path clip-path="url(#clip160)" d="M1002.44 1454.1 Q998.827 1454.1 996.999 1457.66 Q995.193 1461.2 995.193 1468.33 Q995.193 1475.44 996.999 1479.01 Q998.827 1482.55 1002.44 1482.55 Q1006.07 1482.55 1007.88 1479.01 Q1009.71 1475.44 1009.71 1468.33 Q1009.71 1461.2 1007.88 1457.66 Q1006.07 1454.1 1002.44 1454.1 M1002.44 1450.39 Q1008.25 1450.39 1011.3 1455 Q1014.38 1459.58 1014.38 1468.33 Q1014.38 1477.06 1011.3 1481.67 Q1008.25 1486.25 1002.44 1486.25 Q996.628 1486.25 993.55 1481.67 Q990.494 1477.06 990.494 1468.33 Q990.494 1459.58 993.55 1455 Q996.628 1450.39 1002.44 1450.39 Z" fill="#000000" fill-rule="evenodd" fill-opacity="1" /><path clip-path="url(#clip160)" d="M1022.6 1479.7 L1027.48 1479.7 L1027.48 1485.58 L1022.6 1485.58 L1022.6 1479.7 Z" fill="#000000" fill-rule="evenodd" fill-opacity="1" /><path clip-path="url(#clip160)" d="M1047.67 1454.1 Q1044.06 1454.1 1042.23 1457.66 Q1040.42 1461.2 1040.42 1468.33 Q1040.42 1475.44 1042.23 1479.01 Q1044.06 1482.55 1047.67 1482.55 Q1051.3 1482.55 1053.11 1479.01 Q1054.94 1475.44 1054.94 1468.33 Q1054.94 1461.2 1053.11 1457.66 Q1051.3 1454.1 1047.67 1454.1 M1047.67 1450.39 Q1053.48 1450.39 1056.54 1455 Q1059.61 1459.58 1059.61 1468.33 Q1059.61 1477.06 1056.54 1481.67 Q1053.48 1486.25 1047.67 1486.25 Q1041.86 1486.25 1038.78 1481.67 Q1035.73 1477.06 1035.73 1468.33 Q1035.73 1459.58 1038.78 1455 Q1041.86 1450.39 1047.67 1450.39 Z" fill="#000000" fill-rule="evenodd" fill-opacity="1" /><path clip-path="url(#clip160)" d="M1080.68 1455.09 L1068.87 1473.54 L1080.68 1473.54 L1080.68 1455.09 M1079.45 1451.02 L1085.33 1451.02 L1085.33 1473.54 L1090.26 1473.54 L1090.26 1477.43 L1085.33 1477.43 L1085.33 1485.58 L1080.68 1485.58 L1080.68 1477.43 L1065.08 1477.43 L1065.08 1472.92 L1079.45 1451.02 Z" fill="#000000" fill-rule="evenodd" fill-opacity="1" /><path clip-path="url(#clip160)" d="M1420.22 1454.1 Q1416.61 1454.1 1414.78 1457.66 Q1412.98 1461.2 1412.98 1468.33 Q1412.98 1475.44 1414.78 1479.01 Q1416.61 1482.55 1420.22 1482.55 Q1423.86 1482.55 1425.66 1479.01 Q1427.49 1475.44 1427.49 1468.33 Q1427.49 1461.2 1425.66 1457.66 Q1423.86 1454.1 1420.22 1454.1 M1420.22 1450.39 Q1426.03 1450.39 1429.09 1455 Q1432.17 1459.58 1432.17 1468.33 Q1432.17 1477.06 1429.09 1481.67 Q1426.03 1486.25 1420.22 1486.25 Q1414.41 1486.25 1411.33 1481.67 Q1408.28 1477.06 1408.28 1468.33 Q1408.28 1459.58 1411.33 1455 Q1414.41 1450.39 1420.22 1450.39 Z" fill="#000000" fill-rule="evenodd" fill-opacity="1" /><path clip-path="url(#clip160)" d="M1440.38 1479.7 L1445.27 1479.7 L1445.27 1485.58 L1440.38 1485.58 L1440.38 1479.7 Z" fill="#000000" fill-rule="evenodd" fill-opacity="1" /><path clip-path="url(#clip160)" d="M1465.45 1454.1 Q1461.84 1454.1 1460.01 1457.66 Q1458.21 1461.2 1458.21 1468.33 Q1458.21 1475.44 1460.01 1479.01 Q1461.84 1482.55 1465.45 1482.55 Q1469.09 1482.55 1470.89 1479.01 Q1472.72 1475.44 1472.72 1468.33 Q1472.72 1461.2 1470.89 1457.66 Q1469.09 1454.1 1465.45 1454.1 M1465.45 1450.39 Q1471.26 1450.39 1474.32 1455 Q1477.4 1459.58 1477.4 1468.33 Q1477.4 1477.06 1474.32 1481.67 Q1471.26 1486.25 1465.45 1486.25 Q1459.64 1486.25 1456.57 1481.67 Q1453.51 1477.06 1453.51 1468.33 Q1453.51 1459.58 1456.57 1455 Q1459.64 1450.39 1465.45 1450.39 Z" fill="#000000" fill-rule="evenodd" fill-opacity="1" /><path clip-path="url(#clip160)" d="M1496.19 1466.44 Q1493.05 1466.44 1491.19 1468.59 Q1489.37 1470.74 1489.37 1474.49 Q1489.37 1478.22 1491.19 1480.39 Q1493.05 1482.55 1496.19 1482.55 Q1499.34 1482.55 1501.17 1480.39 Q1503.02 1478.22 1503.02 1474.49 Q1503.02 1470.74 1501.17 1468.59 Q1499.34 1466.44 1496.19 1466.44 M1505.48 1451.78 L1505.48 1456.04 Q1503.72 1455.21 1501.91 1454.77 Q1500.13 1454.33 1498.37 1454.33 Q1493.74 1454.33 1491.29 1457.45 Q1488.86 1460.58 1488.51 1466.9 Q1489.88 1464.89 1491.94 1463.82 Q1494 1462.73 1496.47 1462.73 Q1501.68 1462.73 1504.69 1465.9 Q1507.72 1469.05 1507.72 1474.49 Q1507.72 1479.82 1504.57 1483.03 Q1501.43 1486.25 1496.19 1486.25 Q1490.2 1486.25 1487.03 1481.67 Q1483.86 1477.06 1483.86 1468.33 Q1483.86 1460.14 1487.75 1455.28 Q1491.63 1450.39 1498.19 1450.39 Q1499.94 1450.39 1501.73 1450.74 Q1503.53 1451.09 1505.48 1451.78 Z" fill="#000000" fill-rule="evenodd" fill-opacity="1" /><path clip-path="url(#clip160)" d="M1837.97 1454.1 Q1834.36 1454.1 1832.53 1457.66 Q1830.73 1461.2 1830.73 1468.33 Q1830.73 1475.44 1832.53 1479.01 Q1834.36 1482.55 1837.97 1482.55 Q1841.61 1482.55 1843.41 1479.01 Q1845.24 1475.44 1845.24 1468.33 Q1845.24 1461.2 1843.41 1457.66 Q1841.61 1454.1 1837.97 1454.1 M1837.97 1450.39 Q1843.78 1450.39 1846.84 1455 Q1849.92 1459.58 1849.92 1468.33 Q1849.92 1477.06 1846.84 1481.67 Q1843.78 1486.25 1837.97 1486.25 Q1832.16 1486.25 1829.08 1481.67 Q1826.03 1477.06 1826.03 1468.33 Q1826.03 1459.58 1829.08 1455 Q1832.16 1450.39 1837.97 1450.39 Z" fill="#000000" fill-rule="evenodd" fill-opacity="1" /><path clip-path="url(#clip160)" d="M1858.13 1479.7 L1863.02 1479.7 L1863.02 1485.58 L1858.13 1485.58 L1858.13 1479.7 Z" fill="#000000" fill-rule="evenodd" fill-opacity="1" /><path clip-path="url(#clip160)" d="M1883.2 1454.1 Q1879.59 1454.1 1877.76 1457.66 Q1875.96 1461.2 1875.96 1468.33 Q1875.96 1475.44 1877.76 1479.01 Q1879.59 1482.55 1883.2 1482.55 Q1886.84 1482.55 1888.64 1479.01 Q1890.47 1475.44 1890.47 1468.33 Q1890.47 1461.2 1888.64 1457.66 Q1886.84 1454.1 1883.2 1454.1 M1883.2 1450.39 Q1889.01 1450.39 1892.07 1455 Q1895.15 1459.58 1895.15 1468.33 Q1895.15 1477.06 1892.07 1481.67 Q1889.01 1486.25 1883.2 1486.25 Q1877.39 1486.25 1874.31 1481.67 Q1871.26 1477.06 1871.26 1468.33 Q1871.26 1459.58 1874.31 1455 Q1877.39 1450.39 1883.2 1450.39 Z" fill="#000000" fill-rule="evenodd" fill-opacity="1" /><path clip-path="url(#clip160)" d="M1913.37 1469.17 Q1910.03 1469.17 1908.11 1470.95 Q1906.21 1472.73 1906.21 1475.86 Q1906.21 1478.98 1908.11 1480.77 Q1910.03 1482.55 1913.37 1482.55 Q1916.7 1482.55 1918.62 1480.77 Q1920.54 1478.96 1920.54 1475.86 Q1920.54 1472.73 1918.62 1470.95 Q1916.72 1469.17 1913.37 1469.17 M1908.69 1467.18 Q1905.68 1466.44 1903.99 1464.38 Q1902.32 1462.32 1902.32 1459.35 Q1902.32 1455.21 1905.26 1452.8 Q1908.23 1450.39 1913.37 1450.39 Q1918.53 1450.39 1921.47 1452.8 Q1924.41 1455.21 1924.41 1459.35 Q1924.41 1462.32 1922.72 1464.38 Q1921.05 1466.44 1918.06 1467.18 Q1921.44 1467.96 1923.32 1470.26 Q1925.22 1472.55 1925.22 1475.86 Q1925.22 1480.88 1922.14 1483.57 Q1919.08 1486.25 1913.37 1486.25 Q1907.65 1486.25 1904.57 1483.57 Q1901.51 1480.88 1901.51 1475.86 Q1901.51 1472.55 1903.41 1470.26 Q1905.31 1467.96 1908.69 1467.18 M1906.98 1459.79 Q1906.98 1462.48 1908.64 1463.98 Q1910.33 1465.49 1913.37 1465.49 Q1916.37 1465.49 1918.06 1463.98 Q1919.78 1462.48 1919.78 1459.79 Q1919.78 1457.11 1918.06 1455.6 Q1916.37 1454.1 1913.37 1454.1 Q1910.33 1454.1 1908.64 1455.6 Q1906.98 1457.11 1906.98 1459.79 Z" fill="#000000" fill-rule="evenodd" fill-opacity="1" /><path clip-path="url(#clip160)" d="M2255.55 1454.1 Q2251.94 1454.1 2250.11 1457.66 Q2248.3 1461.2 2248.3 1468.33 Q2248.3 1475.44 2250.11 1479.01 Q2251.94 1482.55 2255.55 1482.55 Q2259.18 1482.55 2260.99 1479.01 Q2262.82 1475.44 2262.82 1468.33 Q2262.82 1461.2 2260.99 1457.66 Q2259.18 1454.1 2255.55 1454.1 M2255.55 1450.39 Q2261.36 1450.39 2264.41 1455 Q2267.49 1459.58 2267.49 1468.33 Q2267.49 1477.06 2264.41 1481.67 Q2261.36 1486.25 2255.55 1486.25 Q2249.74 1486.25 2246.66 1481.67 Q2243.6 1477.06 2243.6 1468.33 Q2243.6 1459.58 2246.66 1455 Q2249.74 1450.39 2255.55 1450.39 Z" fill="#000000" fill-rule="evenodd" fill-opacity="1" /><path clip-path="url(#clip160)" d="M2275.71 1479.7 L2280.59 1479.7 L2280.59 1485.58 L2275.71 1485.58 L2275.71 1479.7 Z" fill="#000000" fill-rule="evenodd" fill-opacity="1" /><path clip-path="url(#clip160)" d="M2291.59 1481.64 L2299.23 1481.64 L2299.23 1455.28 L2290.92 1456.95 L2290.92 1452.69 L2299.18 1451.02 L2303.86 1451.02 L2303.86 1481.64 L2311.5 1481.64 L2311.5 1485.58 L2291.59 1485.58 L2291.59 1481.64 Z" fill="#000000" fill-rule="evenodd" fill-opacity="1" /><path clip-path="url(#clip160)" d="M2330.94 1454.1 Q2327.33 1454.1 2325.5 1457.66 Q2323.7 1461.2 2323.7 1468.33 Q2323.7 1475.44 2325.5 1479.01 Q2327.33 1482.55 2330.94 1482.55 Q2334.58 1482.55 2336.38 1479.01 Q2338.21 1475.44 2338.21 1468.33 Q2338.21 1461.2 2336.38 1457.66 Q2334.58 1454.1 2330.94 1454.1 M2330.94 1450.39 Q2336.75 1450.39 2339.81 1455 Q2342.89 1459.58 2342.89 1468.33 Q2342.89 1477.06 2339.81 1481.67 Q2336.75 1486.25 2330.94 1486.25 Q2325.13 1486.25 2322.05 1481.67 Q2319 1477.06 2319 1468.33 Q2319 1459.58 2322.05 1455 Q2325.13 1450.39 2330.94 1450.39 Z" fill="#000000" fill-rule="evenodd" fill-opacity="1" /><path clip-path="url(#clip160)" d="M1316.32 1546.53 L1316.32 1581.6 L1310.46 1581.6 L1310.46 1546.72 Q1310.46 1541.66 1308.49 1539.14 Q1306.52 1536.63 1302.57 1536.63 Q1297.83 1536.63 1295.09 1539.65 Q1292.35 1542.68 1292.35 1547.9 L1292.35 1568.04 L1286.46 1568.04 L1286.46 1532.4 L1292.35 1532.4 L1292.35 1537.93 Q1294.45 1534.72 1297.29 1533.13 Q1300.15 1531.54 1303.87 1531.54 Q1310.02 1531.54 1313.17 1535.32 Q1316.32 1539.14 1316.32 1546.53 Z" fill="#000000" fill-rule="evenodd" fill-opacity="1" /><polyline clip-path="url(#clip162)" style="stroke:#000000; stroke-linecap:butt; stroke-linejoin:round; stroke-width:2; stroke-opacity:0.1; fill:none" points="
  250.028,1373.71 2352.76,1373.71 
  "/>
<polyline clip-path="url(#clip162)" style="stroke:#000000; stroke-linecap:butt; stroke-linejoin:round; stroke-width:2; stroke-opacity:0.1; fill:none" points="
  250.028,1159.31 2352.76,1159.31 
  "/>
<polyline clip-path="url(#clip162)" style="stroke:#000000; stroke-linecap:butt; stroke-linejoin:round; stroke-width:2; stroke-opacity:0.1; fill:none" points="
  250.028,944.914 2352.76,944.914 
  "/>
<polyline clip-path="url(#clip162)" style="stroke:#000000; stroke-linecap:butt; stroke-linejoin:round; stroke-width:2; stroke-opacity:0.1; fill:none" points="
  250.028,730.517 2352.76,730.517 
  "/>
<polyline clip-path="url(#clip162)" style="stroke:#000000; stroke-linecap:butt; stroke-linejoin:round; stroke-width:2; stroke-opacity:0.1; fill:none" points="
  250.028,516.121 2352.76,516.121 
  "/>
<polyline clip-path="url(#clip162)" style="stroke:#000000; stroke-linecap:butt; stroke-linejoin:round; stroke-width:2; stroke-opacity:0.1; fill:none" points="
  250.028,301.725 2352.76,301.725 
  "/>
<polyline clip-path="url(#clip160)" style="stroke:#000000; stroke-linecap:butt; stroke-linejoin:round; stroke-width:4; stroke-opacity:1; fill:none" points="
  250.028,1423.18 250.028,123.472 
  "/>
<polyline clip-path="url(#clip160)" style="stroke:#000000; stroke-linecap:butt; stroke-linejoin:round; stroke-width:4; stroke-opacity:1; fill:none" points="
  250.028,1373.71 268.926,1373.71 
  "/>
<polyline clip-path="url(#clip160)" style="stroke:#000000; stroke-linecap:butt; stroke-linejoin:round; stroke-width:4; stroke-opacity:1; fill:none" points="
  250.028,1159.31 268.926,1159.31 
  "/>
<polyline clip-path="url(#clip160)" style="stroke:#000000; stroke-linecap:butt; stroke-linejoin:round; stroke-width:4; stroke-opacity:1; fill:none" points="
  250.028,944.914 268.926,944.914 
  "/>
<polyline clip-path="url(#clip160)" style="stroke:#000000; stroke-linecap:butt; stroke-linejoin:round; stroke-width:4; stroke-opacity:1; fill:none" points="
  250.028,730.517 268.926,730.517 
  "/>
<polyline clip-path="url(#clip160)" style="stroke:#000000; stroke-linecap:butt; stroke-linejoin:round; stroke-width:4; stroke-opacity:1; fill:none" points="
  250.028,516.121 268.926,516.121 
  "/>
<polyline clip-path="url(#clip160)" style="stroke:#000000; stroke-linecap:butt; stroke-linejoin:round; stroke-width:4; stroke-opacity:1; fill:none" points="
  250.028,301.725 268.926,301.725 
  "/>
<path clip-path="url(#clip160)" d="M126.691 1359.5 Q123.08 1359.5 121.251 1363.07 Q119.445 1366.61 119.445 1373.74 Q119.445 1380.85 121.251 1384.41 Q123.08 1387.95 126.691 1387.95 Q130.325 1387.95 132.13 1384.41 Q133.959 1380.85 133.959 1373.74 Q133.959 1366.61 132.13 1363.07 Q130.325 1359.5 126.691 1359.5 M126.691 1355.8 Q132.501 1355.8 135.556 1360.41 Q138.635 1364.99 138.635 1373.74 Q138.635 1382.47 135.556 1387.07 Q132.501 1391.66 126.691 1391.66 Q120.88 1391.66 117.802 1387.07 Q114.746 1382.47 114.746 1373.74 Q114.746 1364.99 117.802 1360.41 Q120.88 1355.8 126.691 1355.8 Z" fill="#000000" fill-rule="evenodd" fill-opacity="1" /><path clip-path="url(#clip160)" d="M146.853 1385.11 L151.737 1385.11 L151.737 1390.99 L146.853 1390.99 L146.853 1385.11 Z" fill="#000000" fill-rule="evenodd" fill-opacity="1" /><path clip-path="url(#clip160)" d="M171.922 1359.5 Q168.311 1359.5 166.482 1363.07 Q164.677 1366.61 164.677 1373.74 Q164.677 1380.85 166.482 1384.41 Q168.311 1387.95 171.922 1387.95 Q175.556 1387.95 177.362 1384.41 Q179.19 1380.85 179.19 1373.74 Q179.19 1366.61 177.362 1363.07 Q175.556 1359.5 171.922 1359.5 M171.922 1355.8 Q177.732 1355.8 180.788 1360.41 Q183.866 1364.99 183.866 1373.74 Q183.866 1382.47 180.788 1387.07 Q177.732 1391.66 171.922 1391.66 Q166.112 1391.66 163.033 1387.07 Q159.978 1382.47 159.978 1373.74 Q159.978 1364.99 163.033 1360.41 Q166.112 1355.8 171.922 1355.8 Z" fill="#000000" fill-rule="evenodd" fill-opacity="1" /><path clip-path="url(#clip160)" d="M202.084 1359.5 Q198.473 1359.5 196.644 1363.07 Q194.838 1366.61 194.838 1373.74 Q194.838 1380.85 196.644 1384.41 Q198.473 1387.95 202.084 1387.95 Q205.718 1387.95 207.524 1384.41 Q209.352 1380.85 209.352 1373.74 Q209.352 1366.61 207.524 1363.07 Q205.718 1359.5 202.084 1359.5 M202.084 1355.8 Q207.894 1355.8 210.949 1360.41 Q214.028 1364.99 214.028 1373.74 Q214.028 1382.47 210.949 1387.07 Q207.894 1391.66 202.084 1391.66 Q196.274 1391.66 193.195 1387.07 Q190.139 1382.47 190.139 1373.74 Q190.139 1364.99 193.195 1360.41 Q196.274 1355.8 202.084 1355.8 Z" fill="#000000" fill-rule="evenodd" fill-opacity="1" /><path clip-path="url(#clip160)" d="M127.917 1145.11 Q124.306 1145.11 122.478 1148.67 Q120.672 1152.22 120.672 1159.34 Q120.672 1166.45 122.478 1170.02 Q124.306 1173.56 127.917 1173.56 Q131.552 1173.56 133.357 1170.02 Q135.186 1166.45 135.186 1159.34 Q135.186 1152.22 133.357 1148.67 Q131.552 1145.11 127.917 1145.11 M127.917 1141.4 Q133.728 1141.4 136.783 1146.01 Q139.862 1150.59 139.862 1159.34 Q139.862 1168.07 136.783 1172.68 Q133.728 1177.26 127.917 1177.26 Q122.107 1177.26 119.029 1172.68 Q115.973 1168.07 115.973 1159.34 Q115.973 1150.59 119.029 1146.01 Q122.107 1141.4 127.917 1141.4 Z" fill="#000000" fill-rule="evenodd" fill-opacity="1" /><path clip-path="url(#clip160)" d="M148.079 1170.71 L152.964 1170.71 L152.964 1176.59 L148.079 1176.59 L148.079 1170.71 Z" fill="#000000" fill-rule="evenodd" fill-opacity="1" /><path clip-path="url(#clip160)" d="M173.149 1145.11 Q169.538 1145.11 167.709 1148.67 Q165.903 1152.22 165.903 1159.34 Q165.903 1166.45 167.709 1170.02 Q169.538 1173.56 173.149 1173.56 Q176.783 1173.56 178.589 1170.02 Q180.417 1166.45 180.417 1159.34 Q180.417 1152.22 178.589 1148.67 Q176.783 1145.11 173.149 1145.11 M173.149 1141.4 Q178.959 1141.4 182.014 1146.01 Q185.093 1150.59 185.093 1159.34 Q185.093 1168.07 182.014 1172.68 Q178.959 1177.26 173.149 1177.26 Q167.339 1177.26 164.26 1172.68 Q161.204 1168.07 161.204 1159.34 Q161.204 1150.59 164.26 1146.01 Q167.339 1141.4 173.149 1141.4 Z" fill="#000000" fill-rule="evenodd" fill-opacity="1" /><path clip-path="url(#clip160)" d="M194.121 1172.65 L201.76 1172.65 L201.76 1146.29 L193.45 1147.96 L193.45 1143.7 L201.713 1142.03 L206.389 1142.03 L206.389 1172.65 L214.028 1172.65 L214.028 1176.59 L194.121 1176.59 L194.121 1172.65 Z" fill="#000000" fill-rule="evenodd" fill-opacity="1" /><path clip-path="url(#clip160)" d="M128.288 930.712 Q124.677 930.712 122.848 934.277 Q121.043 937.819 121.043 944.948 Q121.043 952.055 122.848 955.62 Q124.677 959.161 128.288 959.161 Q131.922 959.161 133.728 955.62 Q135.556 952.055 135.556 944.948 Q135.556 937.819 133.728 934.277 Q131.922 930.712 128.288 930.712 M128.288 927.009 Q134.098 927.009 137.154 931.615 Q140.232 936.198 140.232 944.948 Q140.232 953.675 137.154 958.282 Q134.098 962.865 128.288 962.865 Q122.478 962.865 119.399 958.282 Q116.343 953.675 116.343 944.948 Q116.343 936.198 119.399 931.615 Q122.478 927.009 128.288 927.009 Z" fill="#000000" fill-rule="evenodd" fill-opacity="1" /><path clip-path="url(#clip160)" d="M148.45 956.314 L153.334 956.314 L153.334 962.194 L148.45 962.194 L148.45 956.314 Z" fill="#000000" fill-rule="evenodd" fill-opacity="1" /><path clip-path="url(#clip160)" d="M173.519 930.712 Q169.908 930.712 168.079 934.277 Q166.274 937.819 166.274 944.948 Q166.274 952.055 168.079 955.62 Q169.908 959.161 173.519 959.161 Q177.153 959.161 178.959 955.62 Q180.788 952.055 180.788 944.948 Q180.788 937.819 178.959 934.277 Q177.153 930.712 173.519 930.712 M173.519 927.009 Q179.329 927.009 182.385 931.615 Q185.463 936.198 185.463 944.948 Q185.463 953.675 182.385 958.282 Q179.329 962.865 173.519 962.865 Q167.709 962.865 164.63 958.282 Q161.575 953.675 161.575 944.948 Q161.575 936.198 164.63 931.615 Q167.709 927.009 173.519 927.009 Z" fill="#000000" fill-rule="evenodd" fill-opacity="1" /><path clip-path="url(#clip160)" d="M197.709 958.258 L214.028 958.258 L214.028 962.194 L192.084 962.194 L192.084 958.258 Q194.746 955.504 199.329 950.874 Q203.936 946.221 205.116 944.879 Q207.362 942.356 208.241 940.62 Q209.144 938.86 209.144 937.171 Q209.144 934.416 207.199 932.68 Q205.278 930.944 202.176 930.944 Q199.977 930.944 197.524 931.708 Q195.093 932.472 192.315 934.022 L192.315 929.3 Q195.139 928.166 197.593 927.587 Q200.047 927.009 202.084 927.009 Q207.454 927.009 210.649 929.694 Q213.843 932.379 213.843 936.87 Q213.843 938.999 213.033 940.921 Q212.246 942.819 210.139 945.411 Q209.561 946.083 206.459 949.3 Q203.357 952.495 197.709 958.258 Z" fill="#000000" fill-rule="evenodd" fill-opacity="1" /><path clip-path="url(#clip160)" d="M127.339 716.316 Q123.728 716.316 121.899 719.881 Q120.093 723.422 120.093 730.552 Q120.093 737.658 121.899 741.223 Q123.728 744.765 127.339 744.765 Q130.973 744.765 132.779 741.223 Q134.607 737.658 134.607 730.552 Q134.607 723.422 132.779 719.881 Q130.973 716.316 127.339 716.316 M127.339 712.612 Q133.149 712.612 136.204 717.219 Q139.283 721.802 139.283 730.552 Q139.283 739.279 136.204 743.885 Q133.149 748.469 127.339 748.469 Q121.529 748.469 118.45 743.885 Q115.394 739.279 115.394 730.552 Q115.394 721.802 118.45 717.219 Q121.529 712.612 127.339 712.612 Z" fill="#000000" fill-rule="evenodd" fill-opacity="1" /><path clip-path="url(#clip160)" d="M147.501 741.918 L152.385 741.918 L152.385 747.797 L147.501 747.797 L147.501 741.918 Z" fill="#000000" fill-rule="evenodd" fill-opacity="1" /><path clip-path="url(#clip160)" d="M172.57 716.316 Q168.959 716.316 167.13 719.881 Q165.325 723.422 165.325 730.552 Q165.325 737.658 167.13 741.223 Q168.959 744.765 172.57 744.765 Q176.204 744.765 178.01 741.223 Q179.839 737.658 179.839 730.552 Q179.839 723.422 178.01 719.881 Q176.204 716.316 172.57 716.316 M172.57 712.612 Q178.38 712.612 181.436 717.219 Q184.514 721.802 184.514 730.552 Q184.514 739.279 181.436 743.885 Q178.38 748.469 172.57 748.469 Q166.76 748.469 163.681 743.885 Q160.626 739.279 160.626 730.552 Q160.626 721.802 163.681 717.219 Q166.76 712.612 172.57 712.612 Z" fill="#000000" fill-rule="evenodd" fill-opacity="1" /><path clip-path="url(#clip160)" d="M206.899 729.163 Q210.255 729.881 212.13 732.149 Q214.028 734.418 214.028 737.751 Q214.028 742.867 210.51 745.668 Q206.991 748.469 200.51 748.469 Q198.334 748.469 196.019 748.029 Q193.727 747.612 191.274 746.756 L191.274 742.242 Q193.218 743.376 195.533 743.955 Q197.848 744.533 200.371 744.533 Q204.769 744.533 207.061 742.797 Q209.375 741.061 209.375 737.751 Q209.375 734.696 207.223 732.983 Q205.093 731.246 201.274 731.246 L197.246 731.246 L197.246 727.404 L201.459 727.404 Q204.908 727.404 206.737 726.038 Q208.565 724.649 208.565 722.057 Q208.565 719.395 206.667 717.983 Q204.792 716.547 201.274 716.547 Q199.352 716.547 197.153 716.964 Q194.954 717.381 192.315 718.26 L192.315 714.094 Q194.977 713.353 197.292 712.983 Q199.63 712.612 201.69 712.612 Q207.014 712.612 210.116 715.043 Q213.218 717.45 213.218 721.571 Q213.218 724.441 211.574 726.432 Q209.931 728.399 206.899 729.163 Z" fill="#000000" fill-rule="evenodd" fill-opacity="1" /><path clip-path="url(#clip160)" d="M126.205 501.92 Q122.593 501.92 120.765 505.485 Q118.959 509.026 118.959 516.156 Q118.959 523.262 120.765 526.827 Q122.593 530.369 126.205 530.369 Q129.839 530.369 131.644 526.827 Q133.473 523.262 133.473 516.156 Q133.473 509.026 131.644 505.485 Q129.839 501.92 126.205 501.92 M126.205 498.216 Q132.015 498.216 135.07 502.822 Q138.149 507.406 138.149 516.156 Q138.149 524.883 135.07 529.489 Q132.015 534.072 126.205 534.072 Q120.394 534.072 117.316 529.489 Q114.26 524.883 114.26 516.156 Q114.26 507.406 117.316 502.822 Q120.394 498.216 126.205 498.216 Z" fill="#000000" fill-rule="evenodd" fill-opacity="1" /><path clip-path="url(#clip160)" d="M146.366 527.521 L151.251 527.521 L151.251 533.401 L146.366 533.401 L146.366 527.521 Z" fill="#000000" fill-rule="evenodd" fill-opacity="1" /><path clip-path="url(#clip160)" d="M171.436 501.92 Q167.825 501.92 165.996 505.485 Q164.19 509.026 164.19 516.156 Q164.19 523.262 165.996 526.827 Q167.825 530.369 171.436 530.369 Q175.07 530.369 176.876 526.827 Q178.704 523.262 178.704 516.156 Q178.704 509.026 176.876 505.485 Q175.07 501.92 171.436 501.92 M171.436 498.216 Q177.246 498.216 180.301 502.822 Q183.38 507.406 183.38 516.156 Q183.38 524.883 180.301 529.489 Q177.246 534.072 171.436 534.072 Q165.626 534.072 162.547 529.489 Q159.491 524.883 159.491 516.156 Q159.491 507.406 162.547 502.822 Q165.626 498.216 171.436 498.216 Z" fill="#000000" fill-rule="evenodd" fill-opacity="1" /><path clip-path="url(#clip160)" d="M204.445 502.915 L192.639 521.364 L204.445 521.364 L204.445 502.915 M203.218 498.841 L209.098 498.841 L209.098 521.364 L214.028 521.364 L214.028 525.253 L209.098 525.253 L209.098 533.401 L204.445 533.401 L204.445 525.253 L188.843 525.253 L188.843 520.739 L203.218 498.841 Z" fill="#000000" fill-rule="evenodd" fill-opacity="1" /><path clip-path="url(#clip160)" d="M127.686 287.523 Q124.075 287.523 122.246 291.088 Q120.441 294.63 120.441 301.759 Q120.441 308.866 122.246 312.431 Q124.075 315.972 127.686 315.972 Q131.32 315.972 133.126 312.431 Q134.954 308.866 134.954 301.759 Q134.954 294.63 133.126 291.088 Q131.32 287.523 127.686 287.523 M127.686 283.82 Q133.496 283.82 136.552 288.426 Q139.63 293.01 139.63 301.759 Q139.63 310.486 136.552 315.093 Q133.496 319.676 127.686 319.676 Q121.876 319.676 118.797 315.093 Q115.742 310.486 115.742 301.759 Q115.742 293.01 118.797 288.426 Q121.876 283.82 127.686 283.82 Z" fill="#000000" fill-rule="evenodd" fill-opacity="1" /><path clip-path="url(#clip160)" d="M147.848 313.125 L152.732 313.125 L152.732 319.005 L147.848 319.005 L147.848 313.125 Z" fill="#000000" fill-rule="evenodd" fill-opacity="1" /><path clip-path="url(#clip160)" d="M172.917 287.523 Q169.306 287.523 167.477 291.088 Q165.672 294.63 165.672 301.759 Q165.672 308.866 167.477 312.431 Q169.306 315.972 172.917 315.972 Q176.551 315.972 178.357 312.431 Q180.186 308.866 180.186 301.759 Q180.186 294.63 178.357 291.088 Q176.551 287.523 172.917 287.523 M172.917 283.82 Q178.727 283.82 181.783 288.426 Q184.862 293.01 184.862 301.759 Q184.862 310.486 181.783 315.093 Q178.727 319.676 172.917 319.676 Q167.107 319.676 164.028 315.093 Q160.973 310.486 160.973 301.759 Q160.973 293.01 164.028 288.426 Q167.107 283.82 172.917 283.82 Z" fill="#000000" fill-rule="evenodd" fill-opacity="1" /><path clip-path="url(#clip160)" d="M193.125 284.445 L211.482 284.445 L211.482 288.38 L197.408 288.38 L197.408 296.852 Q198.426 296.505 199.445 296.343 Q200.463 296.158 201.482 296.158 Q207.269 296.158 210.649 299.329 Q214.028 302.5 214.028 307.917 Q214.028 313.496 210.556 316.597 Q207.084 319.676 200.764 319.676 Q198.588 319.676 196.32 319.306 Q194.075 318.935 191.667 318.195 L191.667 313.496 Q193.75 314.63 195.973 315.185 Q198.195 315.741 200.672 315.741 Q204.676 315.741 207.014 313.634 Q209.352 311.528 209.352 307.917 Q209.352 304.306 207.014 302.199 Q204.676 300.093 200.672 300.093 Q198.797 300.093 196.922 300.509 Q195.07 300.926 193.125 301.806 L193.125 284.445 Z" fill="#000000" fill-rule="evenodd" fill-opacity="1" /><path clip-path="url(#clip160)" d="M33.0032 774.87 Q33.0032 779.708 36.5043 782.318 Q40.1646 785.055 46.212 785.055 Q52.6095 785.055 56.3017 782.349 Q59.9619 779.612 59.9619 774.87 Q59.9619 770.191 56.2698 767.454 Q52.5777 764.716 46.212 764.716 Q40.3874 764.716 36.5043 767.454 Q33.0032 769.968 33.0032 774.87 M28.3562 774.87 L28.3562 755.422 L34.2127 755.422 L34.2127 761.979 Q39.1779 758.51 46.212 758.51 Q54.9649 758.51 59.9301 762.87 Q64.9272 767.231 64.9272 774.87 Q64.9272 782.54 59.9301 786.869 Q54.9649 791.23 46.212 791.23 Q37.3955 791.23 32.4621 786.869 Q28.3562 783.272 28.3562 774.87 Z" fill="#000000" fill-rule="evenodd" fill-opacity="1" /><path clip-path="url(#clip160)" d="M881.334 45.1919 L881.334 72.576 L873.88 72.576 L873.88 45.4349 Q873.88 38.994 871.368 35.7938 Q868.857 32.5936 863.834 32.5936 Q857.798 32.5936 854.314 36.4419 Q850.83 40.2903 850.83 46.9338 L850.83 72.576 L843.336 72.576 L843.336 27.2059 L850.83 27.2059 L850.83 34.2544 Q853.504 30.163 857.109 28.1376 Q860.755 26.1121 865.494 26.1121 Q873.313 26.1121 877.323 30.9732 Q881.334 35.7938 881.334 45.1919 Z" fill="#000000" fill-rule="evenodd" fill-opacity="1" /><path clip-path="url(#clip160)" d="M913.781 32.4315 Q907.786 32.4315 904.302 37.1306 Q900.818 41.7891 900.818 49.9314 Q900.818 58.0738 904.262 62.7728 Q907.745 67.4314 913.781 67.4314 Q919.736 67.4314 923.22 62.7323 Q926.704 58.0333 926.704 49.9314 Q926.704 41.8701 923.22 37.1711 Q919.736 32.4315 913.781 32.4315 M913.781 26.1121 Q923.503 26.1121 929.053 32.4315 Q934.603 38.7509 934.603 49.9314 Q934.603 61.0714 929.053 67.4314 Q923.503 73.7508 913.781 73.7508 Q904.019 73.7508 898.469 67.4314 Q892.96 61.0714 892.96 49.9314 Q892.96 38.7509 898.469 32.4315 Q904.019 26.1121 913.781 26.1121 Z" fill="#000000" fill-rule="evenodd" fill-opacity="1" /><path clip-path="url(#clip160)" d="M984.672 45.1919 L984.672 72.576 L977.218 72.576 L977.218 45.4349 Q977.218 38.994 974.707 35.7938 Q972.195 32.5936 967.172 32.5936 Q961.136 32.5936 957.653 36.4419 Q954.169 40.2903 954.169 46.9338 L954.169 72.576 L946.675 72.576 L946.675 27.2059 L954.169 27.2059 L954.169 34.2544 Q956.842 30.163 960.448 28.1376 Q964.093 26.1121 968.833 26.1121 Q976.651 26.1121 980.662 30.9732 Q984.672 35.7938 984.672 45.1919 Z" fill="#000000" fill-rule="evenodd" fill-opacity="1" /><path clip-path="url(#clip160)" d="M999.539 9.54393 L1006.99 9.54393 L1006.99 72.576 L999.539 72.576 L999.539 9.54393 Z" fill="#000000" fill-rule="evenodd" fill-opacity="1" /><path clip-path="url(#clip160)" d="M1022.59 27.2059 L1030.04 27.2059 L1030.04 72.576 L1022.59 72.576 L1022.59 27.2059 M1022.59 9.54393 L1030.04 9.54393 L1030.04 18.9825 L1022.59 18.9825 L1022.59 9.54393 Z" fill="#000000" fill-rule="evenodd" fill-opacity="1" /><path clip-path="url(#clip160)" d="M1083.35 45.1919 L1083.35 72.576 L1075.9 72.576 L1075.9 45.4349 Q1075.9 38.994 1073.39 35.7938 Q1070.88 32.5936 1065.85 32.5936 Q1059.82 32.5936 1056.33 36.4419 Q1052.85 40.2903 1052.85 46.9338 L1052.85 72.576 L1045.35 72.576 L1045.35 27.2059 L1052.85 27.2059 L1052.85 34.2544 Q1055.52 30.163 1059.13 28.1376 Q1062.77 26.1121 1067.51 26.1121 Q1075.33 26.1121 1079.34 30.9732 Q1083.35 35.7938 1083.35 45.1919 Z" fill="#000000" fill-rule="evenodd" fill-opacity="1" /><path clip-path="url(#clip160)" d="M1137.03 48.0275 L1137.03 51.6733 L1102.76 51.6733 Q1103.24 59.3701 1107.37 63.421 Q1111.55 67.4314 1118.96 67.4314 Q1123.25 67.4314 1127.26 66.3781 Q1131.31 65.3249 1135.28 63.2184 L1135.28 70.267 Q1131.27 71.9684 1127.06 72.8596 Q1122.85 73.7508 1118.51 73.7508 Q1107.66 73.7508 1101.3 67.4314 Q1094.98 61.1119 1094.98 50.3365 Q1094.98 39.1965 1100.97 32.6746 Q1107.01 26.1121 1117.22 26.1121 Q1126.37 26.1121 1131.68 32.0264 Q1137.03 37.9003 1137.03 48.0275 M1129.57 45.84 Q1129.49 39.7232 1126.13 36.0774 Q1122.81 32.4315 1117.3 32.4315 Q1111.06 32.4315 1107.29 35.9558 Q1103.57 39.4801 1103 45.8805 L1129.57 45.84 Z" fill="#000000" fill-rule="evenodd" fill-opacity="1" /><path clip-path="url(#clip160)" d="M1169.88 49.7694 Q1160.85 49.7694 1157.36 51.8354 Q1153.88 53.9013 1153.88 58.8839 Q1153.88 62.8538 1156.47 65.2034 Q1159.1 67.5124 1163.6 67.5124 Q1169.8 67.5124 1173.53 63.1374 Q1177.29 58.7219 1177.29 51.4303 L1177.29 49.7694 L1169.88 49.7694 M1184.75 46.6907 L1184.75 72.576 L1177.29 72.576 L1177.29 65.6895 Q1174.74 69.8214 1170.93 71.8063 Q1167.12 73.7508 1161.62 73.7508 Q1154.65 73.7508 1150.52 69.8619 Q1146.42 65.9325 1146.42 59.3701 Q1146.42 51.7138 1151.53 47.825 Q1156.67 43.9361 1166.84 43.9361 L1177.29 43.9361 L1177.29 43.2069 Q1177.29 38.0623 1173.89 35.2672 Q1170.53 32.4315 1164.41 32.4315 Q1160.52 32.4315 1156.84 33.3632 Q1153.15 34.295 1149.75 36.1584 L1149.75 29.2718 Q1153.84 27.692 1157.69 26.9223 Q1161.53 26.1121 1165.18 26.1121 Q1175.02 26.1121 1179.89 31.2163 Q1184.75 36.3204 1184.75 46.6907 Z" fill="#000000" fill-rule="evenodd" fill-opacity="1" /><path clip-path="url(#clip160)" d="M1226.39 34.1734 Q1225.13 33.4443 1223.63 33.1202 Q1222.18 32.7556 1220.39 32.7556 Q1214.07 32.7556 1210.67 36.8875 Q1207.31 40.9789 1207.31 48.6757 L1207.31 72.576 L1199.82 72.576 L1199.82 27.2059 L1207.31 27.2059 L1207.31 34.2544 Q1209.66 30.1225 1213.43 28.1376 Q1217.19 26.1121 1222.58 26.1121 Q1223.35 26.1121 1224.28 26.2337 Q1225.21 26.3147 1226.35 26.5172 L1226.39 34.1734 Z" fill="#000000" fill-rule="evenodd" fill-opacity="1" /><path clip-path="url(#clip160)" d="M1293.23 28.9478 L1293.23 35.9153 Q1290.07 34.1734 1286.87 33.3227 Q1283.71 32.4315 1280.47 32.4315 Q1273.22 32.4315 1269.21 37.0496 Q1265.2 41.6271 1265.2 49.9314 Q1265.2 58.2358 1269.21 62.8538 Q1273.22 67.4314 1280.47 67.4314 Q1283.71 67.4314 1286.87 66.5807 Q1290.07 65.6895 1293.23 63.9476 L1293.23 70.8341 Q1290.11 72.2924 1286.75 73.0216 Q1283.43 73.7508 1279.66 73.7508 Q1269.41 73.7508 1263.37 67.3098 Q1257.34 60.8689 1257.34 49.9314 Q1257.34 38.832 1263.41 32.472 Q1269.53 26.1121 1280.15 26.1121 Q1283.59 26.1121 1286.87 26.8413 Q1290.15 27.5299 1293.23 28.9478 Z" fill="#000000" fill-rule="evenodd" fill-opacity="1" /><path clip-path="url(#clip160)" d="M1323.77 32.4315 Q1317.78 32.4315 1314.29 37.1306 Q1310.81 41.7891 1310.81 49.9314 Q1310.81 58.0738 1314.25 62.7728 Q1317.74 67.4314 1323.77 67.4314 Q1329.73 67.4314 1333.21 62.7323 Q1336.7 58.0333 1336.7 49.9314 Q1336.7 41.8701 1333.21 37.1711 Q1329.73 32.4315 1323.77 32.4315 M1323.77 26.1121 Q1333.5 26.1121 1339.05 32.4315 Q1344.59 38.7509 1344.59 49.9314 Q1344.59 61.0714 1339.05 67.4314 Q1333.5 73.7508 1323.77 73.7508 Q1314.01 73.7508 1308.46 67.4314 Q1302.95 61.0714 1302.95 49.9314 Q1302.95 38.7509 1308.46 32.4315 Q1314.01 26.1121 1323.77 26.1121 Z" fill="#000000" fill-rule="evenodd" fill-opacity="1" /><path clip-path="url(#clip160)" d="M1394.66 45.1919 L1394.66 72.576 L1387.21 72.576 L1387.21 45.4349 Q1387.21 38.994 1384.7 35.7938 Q1382.19 32.5936 1377.16 32.5936 Q1371.13 32.5936 1367.64 36.4419 Q1364.16 40.2903 1364.16 46.9338 L1364.16 72.576 L1356.67 72.576 L1356.67 27.2059 L1364.16 27.2059 L1364.16 34.2544 Q1366.83 30.163 1370.44 28.1376 Q1374.09 26.1121 1378.83 26.1121 Q1386.64 26.1121 1390.65 30.9732 Q1394.66 35.7938 1394.66 45.1919 Z" fill="#000000" fill-rule="evenodd" fill-opacity="1" /><path clip-path="url(#clip160)" d="M1439.39 34.0924 L1439.39 9.54393 L1446.84 9.54393 L1446.84 72.576 L1439.39 72.576 L1439.39 65.7705 Q1437.04 69.8214 1433.43 71.8063 Q1429.87 73.7508 1424.84 73.7508 Q1416.62 73.7508 1411.43 67.1883 Q1406.29 60.6258 1406.29 49.9314 Q1406.29 39.2371 1411.43 32.6746 Q1416.62 26.1121 1424.84 26.1121 Q1429.87 26.1121 1433.43 28.0971 Q1437.04 30.0415 1439.39 34.0924 M1413.99 49.9314 Q1413.99 58.1548 1417.35 62.8538 Q1420.75 67.5124 1426.67 67.5124 Q1432.58 67.5124 1435.98 62.8538 Q1439.39 58.1548 1439.39 49.9314 Q1439.39 41.7081 1435.98 37.0496 Q1432.58 32.3505 1426.67 32.3505 Q1420.75 32.3505 1417.35 37.0496 Q1413.99 41.7081 1413.99 49.9314 Z" fill="#000000" fill-rule="evenodd" fill-opacity="1" /><path clip-path="url(#clip160)" d="M1461.42 54.671 L1461.42 27.2059 L1468.88 27.2059 L1468.88 54.3874 Q1468.88 60.8284 1471.39 64.0691 Q1473.9 67.2693 1478.92 67.2693 Q1484.96 67.2693 1488.44 63.421 Q1491.97 59.5726 1491.97 52.9291 L1491.97 27.2059 L1499.42 27.2059 L1499.42 72.576 L1491.97 72.576 L1491.97 65.6084 Q1489.25 69.7404 1485.65 71.7658 Q1482.08 73.7508 1477.34 73.7508 Q1469.52 73.7508 1465.47 68.8897 Q1461.42 64.0286 1461.42 54.671 M1480.18 26.1121 L1480.18 26.1121 Z" fill="#000000" fill-rule="evenodd" fill-opacity="1" /><path clip-path="url(#clip160)" d="M1547.42 28.9478 L1547.42 35.9153 Q1544.26 34.1734 1541.06 33.3227 Q1537.9 32.4315 1534.66 32.4315 Q1527.41 32.4315 1523.4 37.0496 Q1519.39 41.6271 1519.39 49.9314 Q1519.39 58.2358 1523.4 62.8538 Q1527.41 67.4314 1534.66 67.4314 Q1537.9 67.4314 1541.06 66.5807 Q1544.26 65.6895 1547.42 63.9476 L1547.42 70.8341 Q1544.3 72.2924 1540.94 73.0216 Q1537.62 73.7508 1533.85 73.7508 Q1523.6 73.7508 1517.57 67.3098 Q1511.53 60.8689 1511.53 49.9314 Q1511.53 38.832 1517.61 32.472 Q1523.73 26.1121 1534.34 26.1121 Q1537.78 26.1121 1541.06 26.8413 Q1544.35 27.5299 1547.42 28.9478 Z" fill="#000000" fill-rule="evenodd" fill-opacity="1" /><path clip-path="url(#clip160)" d="M1567.76 14.324 L1567.76 27.2059 L1583.11 27.2059 L1583.11 32.9987 L1567.76 32.9987 L1567.76 57.6282 Q1567.76 63.1779 1569.26 64.7578 Q1570.8 66.3376 1575.46 66.3376 L1583.11 66.3376 L1583.11 72.576 L1575.46 72.576 Q1566.83 72.576 1563.55 69.3758 Q1560.27 66.1351 1560.27 57.6282 L1560.27 32.9987 L1554.8 32.9987 L1554.8 27.2059 L1560.27 27.2059 L1560.27 14.324 L1567.76 14.324 Z" fill="#000000" fill-rule="evenodd" fill-opacity="1" /><path clip-path="url(#clip160)" d="M1592.92 27.2059 L1600.37 27.2059 L1600.37 72.576 L1592.92 72.576 L1592.92 27.2059 M1592.92 9.54393 L1600.37 9.54393 L1600.37 18.9825 L1592.92 18.9825 L1592.92 9.54393 Z" fill="#000000" fill-rule="evenodd" fill-opacity="1" /><path clip-path="url(#clip160)" d="M1610.62 27.2059 L1618.52 27.2059 L1632.7 65.2844 L1646.87 27.2059 L1654.77 27.2059 L1637.76 72.576 L1627.63 72.576 L1610.62 27.2059 Z" fill="#000000" fill-rule="evenodd" fill-opacity="1" /><path clip-path="url(#clip160)" d="M1665.06 27.2059 L1672.52 27.2059 L1672.52 72.576 L1665.06 72.576 L1665.06 27.2059 M1665.06 9.54393 L1672.52 9.54393 L1672.52 18.9825 L1665.06 18.9825 L1665.06 9.54393 Z" fill="#000000" fill-rule="evenodd" fill-opacity="1" /><path clip-path="url(#clip160)" d="M1695.48 14.324 L1695.48 27.2059 L1710.84 27.2059 L1710.84 32.9987 L1695.48 32.9987 L1695.48 57.6282 Q1695.48 63.1779 1696.98 64.7578 Q1698.52 66.3376 1703.18 66.3376 L1710.84 66.3376 L1710.84 72.576 L1703.18 72.576 Q1694.55 72.576 1691.27 69.3758 Q1687.99 66.1351 1687.99 57.6282 L1687.99 32.9987 L1682.52 32.9987 L1682.52 27.2059 L1687.99 27.2059 L1687.99 14.324 L1695.48 14.324 Z" fill="#000000" fill-rule="evenodd" fill-opacity="1" /><path clip-path="url(#clip160)" d="M1739.52 76.7889 Q1736.36 84.8907 1733.36 87.3618 Q1730.36 89.8329 1725.34 89.8329 L1719.38 89.8329 L1719.38 83.5945 L1723.76 83.5945 Q1726.84 83.5945 1728.54 82.1361 Q1730.24 80.6778 1732.31 75.2496 L1733.64 71.8468 L1715.29 27.2059 L1723.19 27.2059 L1737.37 62.6918 L1751.55 27.2059 L1759.45 27.2059 L1739.52 76.7889 Z" fill="#000000" fill-rule="evenodd" fill-opacity="1" /><polyline clip-path="url(#clip162)" style="stroke:#009af9; stroke-linecap:butt; stroke-linejoin:round; stroke-width:8; stroke-opacity:1; fill:none" points="
  309.539,1373.71 413.945,1373.71 518.35,1373.71 622.756,1373.71 727.162,1373.71 831.567,1373.71 1040.38,1373.71 1249.19,1373.71 1458,1373.71 1875.62,1373.71 
  2293.24,1373.71 
  "/>
<circle clip-path="url(#clip162)" cx="309.539" cy="1373.71" r="14" fill="#009af9" fill-rule="evenodd" fill-opacity="1" stroke="#000000" stroke-opacity="1" stroke-width="3.2"/>
<circle clip-path="url(#clip162)" cx="413.945" cy="1373.71" r="14" fill="#009af9" fill-rule="evenodd" fill-opacity="1" stroke="#000000" stroke-opacity="1" stroke-width="3.2"/>
<circle clip-path="url(#clip162)" cx="518.35" cy="1373.71" r="14" fill="#009af9" fill-rule="evenodd" fill-opacity="1" stroke="#000000" stroke-opacity="1" stroke-width="3.2"/>
<circle clip-path="url(#clip162)" cx="622.756" cy="1373.71" r="14" fill="#009af9" fill-rule="evenodd" fill-opacity="1" stroke="#000000" stroke-opacity="1" stroke-width="3.2"/>
<circle clip-path="url(#clip162)" cx="727.162" cy="1373.71" r="14" fill="#009af9" fill-rule="evenodd" fill-opacity="1" stroke="#000000" stroke-opacity="1" stroke-width="3.2"/>
<circle clip-path="url(#clip162)" cx="831.567" cy="1373.71" r="14" fill="#009af9" fill-rule="evenodd" fill-opacity="1" stroke="#000000" stroke-opacity="1" stroke-width="3.2"/>
<circle clip-path="url(#clip162)" cx="1040.38" cy="1373.71" r="14" fill="#009af9" fill-rule="evenodd" fill-opacity="1" stroke="#000000" stroke-opacity="1" stroke-width="3.2"/>
<circle clip-path="url(#clip162)" cx="1249.19" cy="1373.71" r="14" fill="#009af9" fill-rule="evenodd" fill-opacity="1" stroke="#000000" stroke-opacity="1" stroke-width="3.2"/>
<circle clip-path="url(#clip162)" cx="1458" cy="1373.71" r="14" fill="#009af9" fill-rule="evenodd" fill-opacity="1" stroke="#000000" stroke-opacity="1" stroke-width="3.2"/>
<circle clip-path="url(#clip162)" cx="1875.62" cy="1373.71" r="14" fill="#009af9" fill-rule="evenodd" fill-opacity="1" stroke="#000000" stroke-opacity="1" stroke-width="3.2"/>
<circle clip-path="url(#clip162)" cx="2293.24" cy="1373.71" r="14" fill="#009af9" fill-rule="evenodd" fill-opacity="1" stroke="#000000" stroke-opacity="1" stroke-width="3.2"/>
<polyline clip-path="url(#clip162)" style="stroke:#e26f46; stroke-linecap:butt; stroke-linejoin:round; stroke-width:8; stroke-opacity:1; fill:none" points="
  309.539,1373.71 413.945,1373.71 518.35,1373.71 622.756,1373.71 727.162,1373.71 831.567,1373.71 1040.38,1373.71 1249.19,1373.71 1458,1373.71 1875.62,1373.71 
  2293.24,1373.71 
  "/>
<circle clip-path="url(#clip162)" cx="309.539" cy="1373.71" r="14" fill="#e26f46" fill-rule="evenodd" fill-opacity="1" stroke="#000000" stroke-opacity="1" stroke-width="3.2"/>
<circle clip-path="url(#clip162)" cx="413.945" cy="1373.71" r="14" fill="#e26f46" fill-rule="evenodd" fill-opacity="1" stroke="#000000" stroke-opacity="1" stroke-width="3.2"/>
<circle clip-path="url(#clip162)" cx="518.35" cy="1373.71" r="14" fill="#e26f46" fill-rule="evenodd" fill-opacity="1" stroke="#000000" stroke-opacity="1" stroke-width="3.2"/>
<circle clip-path="url(#clip162)" cx="622.756" cy="1373.71" r="14" fill="#e26f46" fill-rule="evenodd" fill-opacity="1" stroke="#000000" stroke-opacity="1" stroke-width="3.2"/>
<circle clip-path="url(#clip162)" cx="727.162" cy="1373.71" r="14" fill="#e26f46" fill-rule="evenodd" fill-opacity="1" stroke="#000000" stroke-opacity="1" stroke-width="3.2"/>
<circle clip-path="url(#clip162)" cx="831.567" cy="1373.71" r="14" fill="#e26f46" fill-rule="evenodd" fill-opacity="1" stroke="#000000" stroke-opacity="1" stroke-width="3.2"/>
<circle clip-path="url(#clip162)" cx="1040.38" cy="1373.71" r="14" fill="#e26f46" fill-rule="evenodd" fill-opacity="1" stroke="#000000" stroke-opacity="1" stroke-width="3.2"/>
<circle clip-path="url(#clip162)" cx="1249.19" cy="1373.71" r="14" fill="#e26f46" fill-rule="evenodd" fill-opacity="1" stroke="#000000" stroke-opacity="1" stroke-width="3.2"/>
<circle clip-path="url(#clip162)" cx="1458" cy="1373.71" r="14" fill="#e26f46" fill-rule="evenodd" fill-opacity="1" stroke="#000000" stroke-opacity="1" stroke-width="3.2"/>
<circle clip-path="url(#clip162)" cx="1875.62" cy="1373.71" r="14" fill="#e26f46" fill-rule="evenodd" fill-opacity="1" stroke="#000000" stroke-opacity="1" stroke-width="3.2"/>
<circle clip-path="url(#clip162)" cx="2293.24" cy="1373.71" r="14" fill="#e26f46" fill-rule="evenodd" fill-opacity="1" stroke="#000000" stroke-opacity="1" stroke-width="3.2"/>
<polyline clip-path="url(#clip162)" style="stroke:#3da44d; stroke-linecap:butt; stroke-linejoin:round; stroke-width:8; stroke-opacity:1; fill:none" points="
  309.539,1373.71 413.945,1373.71 518.35,1373.71 622.756,1373.71 727.162,1373.71 831.567,1373.71 1040.38,1373.71 1249.19,1373.71 1458,1373.71 1875.62,1373.71 
  2293.24,1373.71 
  "/>
<circle clip-path="url(#clip162)" cx="309.539" cy="1373.71" r="14" fill="#3da44d" fill-rule="evenodd" fill-opacity="1" stroke="#000000" stroke-opacity="1" stroke-width="3.2"/>
<circle clip-path="url(#clip162)" cx="413.945" cy="1373.71" r="14" fill="#3da44d" fill-rule="evenodd" fill-opacity="1" stroke="#000000" stroke-opacity="1" stroke-width="3.2"/>
<circle clip-path="url(#clip162)" cx="518.35" cy="1373.71" r="14" fill="#3da44d" fill-rule="evenodd" fill-opacity="1" stroke="#000000" stroke-opacity="1" stroke-width="3.2"/>
<circle clip-path="url(#clip162)" cx="622.756" cy="1373.71" r="14" fill="#3da44d" fill-rule="evenodd" fill-opacity="1" stroke="#000000" stroke-opacity="1" stroke-width="3.2"/>
<circle clip-path="url(#clip162)" cx="727.162" cy="1373.71" r="14" fill="#3da44d" fill-rule="evenodd" fill-opacity="1" stroke="#000000" stroke-opacity="1" stroke-width="3.2"/>
<circle clip-path="url(#clip162)" cx="831.567" cy="1373.71" r="14" fill="#3da44d" fill-rule="evenodd" fill-opacity="1" stroke="#000000" stroke-opacity="1" stroke-width="3.2"/>
<circle clip-path="url(#clip162)" cx="1040.38" cy="1373.71" r="14" fill="#3da44d" fill-rule="evenodd" fill-opacity="1" stroke="#000000" stroke-opacity="1" stroke-width="3.2"/>
<circle clip-path="url(#clip162)" cx="1249.19" cy="1373.71" r="14" fill="#3da44d" fill-rule="evenodd" fill-opacity="1" stroke="#000000" stroke-opacity="1" stroke-width="3.2"/>
<circle clip-path="url(#clip162)" cx="1458" cy="1373.71" r="14" fill="#3da44d" fill-rule="evenodd" fill-opacity="1" stroke="#000000" stroke-opacity="1" stroke-width="3.2"/>
<circle clip-path="url(#clip162)" cx="1875.62" cy="1373.71" r="14" fill="#3da44d" fill-rule="evenodd" fill-opacity="1" stroke="#000000" stroke-opacity="1" stroke-width="3.2"/>
<circle clip-path="url(#clip162)" cx="2293.24" cy="1373.71" r="14" fill="#3da44d" fill-rule="evenodd" fill-opacity="1" stroke="#000000" stroke-opacity="1" stroke-width="3.2"/>
<polyline clip-path="url(#clip162)" style="stroke:#c271d2; stroke-linecap:butt; stroke-linejoin:round; stroke-width:8; stroke-opacity:1; fill:none" points="
  309.539,1373.71 413.945,1373.71 518.35,1373.71 622.756,1373.71 727.162,1373.71 831.567,1373.71 1040.38,1373.71 1249.19,1373.71 1458,1373.71 1875.62,1373.71 
  2293.24,1373.71 
  "/>
<circle clip-path="url(#clip162)" cx="309.539" cy="1373.71" r="14" fill="#c271d2" fill-rule="evenodd" fill-opacity="1" stroke="#000000" stroke-opacity="1" stroke-width="3.2"/>
<circle clip-path="url(#clip162)" cx="413.945" cy="1373.71" r="14" fill="#c271d2" fill-rule="evenodd" fill-opacity="1" stroke="#000000" stroke-opacity="1" stroke-width="3.2"/>
<circle clip-path="url(#clip162)" cx="518.35" cy="1373.71" r="14" fill="#c271d2" fill-rule="evenodd" fill-opacity="1" stroke="#000000" stroke-opacity="1" stroke-width="3.2"/>
<circle clip-path="url(#clip162)" cx="622.756" cy="1373.71" r="14" fill="#c271d2" fill-rule="evenodd" fill-opacity="1" stroke="#000000" stroke-opacity="1" stroke-width="3.2"/>
<circle clip-path="url(#clip162)" cx="727.162" cy="1373.71" r="14" fill="#c271d2" fill-rule="evenodd" fill-opacity="1" stroke="#000000" stroke-opacity="1" stroke-width="3.2"/>
<circle clip-path="url(#clip162)" cx="831.567" cy="1373.71" r="14" fill="#c271d2" fill-rule="evenodd" fill-opacity="1" stroke="#000000" stroke-opacity="1" stroke-width="3.2"/>
<circle clip-path="url(#clip162)" cx="1040.38" cy="1373.71" r="14" fill="#c271d2" fill-rule="evenodd" fill-opacity="1" stroke="#000000" stroke-opacity="1" stroke-width="3.2"/>
<circle clip-path="url(#clip162)" cx="1249.19" cy="1373.71" r="14" fill="#c271d2" fill-rule="evenodd" fill-opacity="1" stroke="#000000" stroke-opacity="1" stroke-width="3.2"/>
<circle clip-path="url(#clip162)" cx="1458" cy="1373.71" r="14" fill="#c271d2" fill-rule="evenodd" fill-opacity="1" stroke="#000000" stroke-opacity="1" stroke-width="3.2"/>
<circle clip-path="url(#clip162)" cx="1875.62" cy="1373.71" r="14" fill="#c271d2" fill-rule="evenodd" fill-opacity="1" stroke="#000000" stroke-opacity="1" stroke-width="3.2"/>
<circle clip-path="url(#clip162)" cx="2293.24" cy="1373.71" r="14" fill="#c271d2" fill-rule="evenodd" fill-opacity="1" stroke="#000000" stroke-opacity="1" stroke-width="3.2"/>
<polyline clip-path="url(#clip162)" style="stroke:#ac8d18; stroke-linecap:butt; stroke-linejoin:round; stroke-width:8; stroke-opacity:1; fill:none" points="
  309.539,1016.75 413.945,698.632 518.35,447.969 622.756,277.677 727.162,185.778 831.567,160.256 1040.38,243.012 1249.19,408.838 1458,585.88 1875.62,872.198 
  2293.24,1054.13 
  "/>
<circle clip-path="url(#clip162)" cx="309.539" cy="1016.75" r="14" fill="#ac8d18" fill-rule="evenodd" fill-opacity="1" stroke="#000000" stroke-opacity="1" stroke-width="3.2"/>
<circle clip-path="url(#clip162)" cx="413.945" cy="698.632" r="14" fill="#ac8d18" fill-rule="evenodd" fill-opacity="1" stroke="#000000" stroke-opacity="1" stroke-width="3.2"/>
<circle clip-path="url(#clip162)" cx="518.35" cy="447.969" r="14" fill="#ac8d18" fill-rule="evenodd" fill-opacity="1" stroke="#000000" stroke-opacity="1" stroke-width="3.2"/>
<circle clip-path="url(#clip162)" cx="622.756" cy="277.677" r="14" fill="#ac8d18" fill-rule="evenodd" fill-opacity="1" stroke="#000000" stroke-opacity="1" stroke-width="3.2"/>
<circle clip-path="url(#clip162)" cx="727.162" cy="185.778" r="14" fill="#ac8d18" fill-rule="evenodd" fill-opacity="1" stroke="#000000" stroke-opacity="1" stroke-width="3.2"/>
<circle clip-path="url(#clip162)" cx="831.567" cy="160.256" r="14" fill="#ac8d18" fill-rule="evenodd" fill-opacity="1" stroke="#000000" stroke-opacity="1" stroke-width="3.2"/>
<circle clip-path="url(#clip162)" cx="1040.38" cy="243.012" r="14" fill="#ac8d18" fill-rule="evenodd" fill-opacity="1" stroke="#000000" stroke-opacity="1" stroke-width="3.2"/>
<circle clip-path="url(#clip162)" cx="1249.19" cy="408.838" r="14" fill="#ac8d18" fill-rule="evenodd" fill-opacity="1" stroke="#000000" stroke-opacity="1" stroke-width="3.2"/>
<circle clip-path="url(#clip162)" cx="1458" cy="585.88" r="14" fill="#ac8d18" fill-rule="evenodd" fill-opacity="1" stroke="#000000" stroke-opacity="1" stroke-width="3.2"/>
<circle clip-path="url(#clip162)" cx="1875.62" cy="872.198" r="14" fill="#ac8d18" fill-rule="evenodd" fill-opacity="1" stroke="#000000" stroke-opacity="1" stroke-width="3.2"/>
<circle clip-path="url(#clip162)" cx="2293.24" cy="1054.13" r="14" fill="#ac8d18" fill-rule="evenodd" fill-opacity="1" stroke="#000000" stroke-opacity="1" stroke-width="3.2"/>
<polyline clip-path="url(#clip162)" style="stroke:#00a9ad; stroke-linecap:butt; stroke-linejoin:round; stroke-width:8; stroke-opacity:1; fill:none" points="
  309.539,1380.04 413.945,1384.6 518.35,1386.4 622.756,1385.5 727.162,1382.71 831.567,1379.03 1040.38,1371.89 1249.19,1367.04 1458,1364.46 1875.62,1363.26 
  2293.24,1364.32 
  "/>
<circle clip-path="url(#clip162)" cx="309.539" cy="1380.04" r="14" fill="#00a9ad" fill-rule="evenodd" fill-opacity="1" stroke="#000000" stroke-opacity="1" stroke-width="3.2"/>
<circle clip-path="url(#clip162)" cx="413.945" cy="1384.6" r="14" fill="#00a9ad" fill-rule="evenodd" fill-opacity="1" stroke="#000000" stroke-opacity="1" stroke-width="3.2"/>
<circle clip-path="url(#clip162)" cx="518.35" cy="1386.4" r="14" fill="#00a9ad" fill-rule="evenodd" fill-opacity="1" stroke="#000000" stroke-opacity="1" stroke-width="3.2"/>
<circle clip-path="url(#clip162)" cx="622.756" cy="1385.5" r="14" fill="#00a9ad" fill-rule="evenodd" fill-opacity="1" stroke="#000000" stroke-opacity="1" stroke-width="3.2"/>
<circle clip-path="url(#clip162)" cx="727.162" cy="1382.71" r="14" fill="#00a9ad" fill-rule="evenodd" fill-opacity="1" stroke="#000000" stroke-opacity="1" stroke-width="3.2"/>
<circle clip-path="url(#clip162)" cx="831.567" cy="1379.03" r="14" fill="#00a9ad" fill-rule="evenodd" fill-opacity="1" stroke="#000000" stroke-opacity="1" stroke-width="3.2"/>
<circle clip-path="url(#clip162)" cx="1040.38" cy="1371.89" r="14" fill="#00a9ad" fill-rule="evenodd" fill-opacity="1" stroke="#000000" stroke-opacity="1" stroke-width="3.2"/>
<circle clip-path="url(#clip162)" cx="1249.19" cy="1367.04" r="14" fill="#00a9ad" fill-rule="evenodd" fill-opacity="1" stroke="#000000" stroke-opacity="1" stroke-width="3.2"/>
<circle clip-path="url(#clip162)" cx="1458" cy="1364.46" r="14" fill="#00a9ad" fill-rule="evenodd" fill-opacity="1" stroke="#000000" stroke-opacity="1" stroke-width="3.2"/>
<circle clip-path="url(#clip162)" cx="1875.62" cy="1363.26" r="14" fill="#00a9ad" fill-rule="evenodd" fill-opacity="1" stroke="#000000" stroke-opacity="1" stroke-width="3.2"/>
<circle clip-path="url(#clip162)" cx="2293.24" cy="1364.32" r="14" fill="#00a9ad" fill-rule="evenodd" fill-opacity="1" stroke="#000000" stroke-opacity="1" stroke-width="3.2"/>
<polyline clip-path="url(#clip162)" style="stroke:#ed5d92; stroke-linecap:butt; stroke-linejoin:round; stroke-width:8; stroke-opacity:1; fill:none" points="
  309.539,1023.06 413.945,709.443 518.35,460.474 622.756,289.152 727.162,194.301 831.567,164.905 1040.38,240.083 1249.19,400.554 1458,574.478 1875.62,858.485 
  2293.24,1040.46 
  "/>
<circle clip-path="url(#clip162)" cx="309.539" cy="1023.06" r="14" fill="#ed5d92" fill-rule="evenodd" fill-opacity="1" stroke="#000000" stroke-opacity="1" stroke-width="3.2"/>
<circle clip-path="url(#clip162)" cx="413.945" cy="709.443" r="14" fill="#ed5d92" fill-rule="evenodd" fill-opacity="1" stroke="#000000" stroke-opacity="1" stroke-width="3.2"/>
<circle clip-path="url(#clip162)" cx="518.35" cy="460.474" r="14" fill="#ed5d92" fill-rule="evenodd" fill-opacity="1" stroke="#000000" stroke-opacity="1" stroke-width="3.2"/>
<circle clip-path="url(#clip162)" cx="622.756" cy="289.152" r="14" fill="#ed5d92" fill-rule="evenodd" fill-opacity="1" stroke="#000000" stroke-opacity="1" stroke-width="3.2"/>
<circle clip-path="url(#clip162)" cx="727.162" cy="194.301" r="14" fill="#ed5d92" fill-rule="evenodd" fill-opacity="1" stroke="#000000" stroke-opacity="1" stroke-width="3.2"/>
<circle clip-path="url(#clip162)" cx="831.567" cy="164.905" r="14" fill="#ed5d92" fill-rule="evenodd" fill-opacity="1" stroke="#000000" stroke-opacity="1" stroke-width="3.2"/>
<circle clip-path="url(#clip162)" cx="1040.38" cy="240.083" r="14" fill="#ed5d92" fill-rule="evenodd" fill-opacity="1" stroke="#000000" stroke-opacity="1" stroke-width="3.2"/>
<circle clip-path="url(#clip162)" cx="1249.19" cy="400.554" r="14" fill="#ed5d92" fill-rule="evenodd" fill-opacity="1" stroke="#000000" stroke-opacity="1" stroke-width="3.2"/>
<circle clip-path="url(#clip162)" cx="1458" cy="574.478" r="14" fill="#ed5d92" fill-rule="evenodd" fill-opacity="1" stroke="#000000" stroke-opacity="1" stroke-width="3.2"/>
<circle clip-path="url(#clip162)" cx="1875.62" cy="858.485" r="14" fill="#ed5d92" fill-rule="evenodd" fill-opacity="1" stroke="#000000" stroke-opacity="1" stroke-width="3.2"/>
<circle clip-path="url(#clip162)" cx="2293.24" cy="1040.46" r="14" fill="#ed5d92" fill-rule="evenodd" fill-opacity="1" stroke="#000000" stroke-opacity="1" stroke-width="3.2"/>
<path clip-path="url(#clip160)" d="
M1909.63 581.516 L2282.66 581.516 L2282.66 166.796 L1909.63 166.796  Z
  " fill="#ffffff" fill-rule="evenodd" fill-opacity="1"/>
<polyline clip-path="url(#clip160)" style="stroke:#000000; stroke-linecap:butt; stroke-linejoin:round; stroke-width:4; stroke-opacity:1; fill:none" points="
  1909.63,581.516 2282.66,581.516 2282.66,166.796 1909.63,166.796 1909.63,581.516 
  "/>
<polyline clip-path="url(#clip160)" style="stroke:#009af9; stroke-linecap:butt; stroke-linejoin:round; stroke-width:4; stroke-opacity:1; fill:none" points="
  1932.99,218.636 2073.18,218.636 
  "/>
<circle clip-path="url(#clip160)" cx="2003.09" cy="218.636" r="23" fill="#009af9" fill-rule="evenodd" fill-opacity="1" stroke="#000000" stroke-opacity="1" stroke-width="5.12"/>
<path clip-path="url(#clip160)" d="M2101.22 205.198 L2101.22 232.073 L2106.86 232.073 Q2114.02 232.073 2117.33 228.832 Q2120.66 225.592 2120.66 218.601 Q2120.66 211.657 2117.33 208.439 Q2114.02 205.198 2106.86 205.198 L2101.22 205.198 M2096.54 201.356 L2106.15 201.356 Q2116.19 201.356 2120.89 205.546 Q2125.59 209.712 2125.59 218.601 Q2125.59 227.536 2120.87 231.726 Q2116.15 235.916 2106.15 235.916 L2096.54 235.916 L2096.54 201.356 Z" fill="#000000" fill-rule="evenodd" fill-opacity="1" /><path clip-path="url(#clip160)" d="M2147.88 213.971 Q2147.17 213.555 2146.31 213.37 Q2145.48 213.161 2144.46 213.161 Q2140.85 213.161 2138.9 215.522 Q2136.98 217.86 2136.98 222.258 L2136.98 235.916 L2132.7 235.916 L2132.7 209.99 L2136.98 209.99 L2136.98 214.018 Q2138.32 211.657 2140.48 210.522 Q2142.63 209.365 2145.71 209.365 Q2146.15 209.365 2146.68 209.434 Q2147.21 209.481 2147.86 209.596 L2147.88 213.971 Z" fill="#000000" fill-rule="evenodd" fill-opacity="1" /><path clip-path="url(#clip160)" d="M2151.91 225.684 L2151.91 209.99 L2156.17 209.99 L2156.17 225.522 Q2156.17 229.203 2157.6 231.055 Q2159.04 232.883 2161.91 232.883 Q2165.36 232.883 2167.35 230.684 Q2169.36 228.485 2169.36 224.689 L2169.36 209.99 L2173.62 209.99 L2173.62 235.916 L2169.36 235.916 L2169.36 231.934 Q2167.81 234.295 2165.75 235.453 Q2163.72 236.587 2161.01 236.587 Q2156.54 236.587 2154.23 233.809 Q2151.91 231.031 2151.91 225.684 M2162.63 209.365 L2162.63 209.365 Z" fill="#000000" fill-rule="evenodd" fill-opacity="1" /><path clip-path="url(#clip160)" d="M2199.46 213.925 L2199.46 199.897 L2203.72 199.897 L2203.72 235.916 L2199.46 235.916 L2199.46 232.027 Q2198.11 234.342 2196.05 235.476 Q2194.02 236.587 2191.15 236.587 Q2186.45 236.587 2183.48 232.837 Q2180.54 229.087 2180.54 222.976 Q2180.54 216.865 2183.48 213.115 Q2186.45 209.365 2191.15 209.365 Q2194.02 209.365 2196.05 210.499 Q2198.11 211.61 2199.46 213.925 M2184.94 222.976 Q2184.94 227.675 2186.86 230.36 Q2188.81 233.022 2192.19 233.022 Q2195.57 233.022 2197.51 230.36 Q2199.46 227.675 2199.46 222.976 Q2199.46 218.277 2197.51 215.615 Q2195.57 212.93 2192.19 212.93 Q2188.81 212.93 2186.86 215.615 Q2184.94 218.277 2184.94 222.976 Z" fill="#000000" fill-rule="evenodd" fill-opacity="1" /><path clip-path="url(#clip160)" d="M2234.66 221.888 L2234.66 223.971 L2215.08 223.971 Q2215.36 228.369 2217.72 230.684 Q2220.1 232.976 2224.34 232.976 Q2226.79 232.976 2229.09 232.374 Q2231.4 231.772 2233.67 230.569 L2233.67 234.596 Q2231.38 235.568 2228.97 236.078 Q2226.56 236.587 2224.09 236.587 Q2217.88 236.587 2214.25 232.976 Q2210.64 229.365 2210.64 223.207 Q2210.64 216.842 2214.06 213.115 Q2217.51 209.365 2223.35 209.365 Q2228.58 209.365 2231.61 212.745 Q2234.66 216.101 2234.66 221.888 M2230.41 220.638 Q2230.36 217.143 2228.44 215.059 Q2226.54 212.976 2223.39 212.976 Q2219.83 212.976 2217.67 214.99 Q2215.54 217.004 2215.22 220.661 L2230.41 220.638 Z" fill="#000000" fill-rule="evenodd" fill-opacity="1" /><polyline clip-path="url(#clip160)" style="stroke:#e26f46; stroke-linecap:butt; stroke-linejoin:round; stroke-width:4; stroke-opacity:1; fill:none" points="
  1932.99,270.476 2073.18,270.476 
  "/>
<circle clip-path="url(#clip160)" cx="2003.09" cy="270.476" r="23" fill="#e26f46" fill-rule="evenodd" fill-opacity="1" stroke="#000000" stroke-opacity="1" stroke-width="5.12"/>
<path clip-path="url(#clip160)" d="M2114.97 262.594 L2114.97 266.622 Q2113.16 265.696 2111.22 265.233 Q2109.27 264.77 2107.19 264.77 Q2104.02 264.77 2102.42 265.742 Q2100.85 266.714 2100.85 268.659 Q2100.85 270.14 2101.98 270.997 Q2103.11 271.83 2106.54 272.594 L2108 272.918 Q2112.54 273.89 2114.43 275.672 Q2116.36 277.432 2116.36 280.603 Q2116.36 284.214 2113.48 286.321 Q2110.64 288.427 2105.64 288.427 Q2103.55 288.427 2101.29 288.01 Q2099.04 287.617 2096.54 286.807 L2096.54 282.409 Q2098.9 283.635 2101.19 284.26 Q2103.48 284.862 2105.73 284.862 Q2108.74 284.862 2110.36 283.844 Q2111.98 282.802 2111.98 280.927 Q2111.98 279.191 2110.8 278.265 Q2109.64 277.339 2105.68 276.483 L2104.2 276.135 Q2100.24 275.302 2098.48 273.589 Q2096.73 271.853 2096.73 268.844 Q2096.73 265.186 2099.32 263.196 Q2101.91 261.205 2106.68 261.205 Q2109.04 261.205 2111.12 261.552 Q2113.21 261.899 2114.97 262.594 Z" fill="#000000" fill-rule="evenodd" fill-opacity="1" /><path clip-path="url(#clip160)" d="M2137.35 256.367 Q2132.26 256.367 2129.25 260.163 Q2126.26 263.96 2126.26 270.51 Q2126.26 277.038 2129.25 280.834 Q2132.26 284.631 2137.35 284.631 Q2142.44 284.631 2145.41 280.834 Q2148.39 277.038 2148.39 270.51 Q2148.39 263.96 2145.41 260.163 Q2142.44 256.367 2137.35 256.367 M2143.9 287.131 L2150.06 293.867 L2144.41 293.867 L2139.29 288.334 Q2138.53 288.381 2138.11 288.404 Q2137.72 288.427 2137.35 288.427 Q2130.06 288.427 2125.68 283.566 Q2121.33 278.682 2121.33 270.51 Q2121.33 262.316 2125.68 257.455 Q2130.06 252.571 2137.35 252.571 Q2144.62 252.571 2148.97 257.455 Q2153.32 262.316 2153.32 270.51 Q2153.32 276.529 2150.89 280.811 Q2148.48 285.094 2143.9 287.131 Z" fill="#000000" fill-rule="evenodd" fill-opacity="1" /><path clip-path="url(#clip160)" d="M2160.64 253.196 L2167.6 253.196 L2176.42 276.714 L2185.29 253.196 L2192.26 253.196 L2192.26 287.756 L2187.7 287.756 L2187.7 257.409 L2178.79 281.112 L2174.09 281.112 L2165.17 257.409 L2165.17 287.756 L2160.64 287.756 L2160.64 253.196 Z" fill="#000000" fill-rule="evenodd" fill-opacity="1" /><path clip-path="url(#clip160)" d="M2206.22 257.038 L2206.22 283.913 L2211.86 283.913 Q2219.02 283.913 2222.33 280.672 Q2225.66 277.432 2225.66 270.441 Q2225.66 263.497 2222.33 260.279 Q2219.02 257.038 2211.86 257.038 L2206.22 257.038 M2201.54 253.196 L2211.15 253.196 Q2221.19 253.196 2225.89 257.386 Q2230.59 261.552 2230.59 270.441 Q2230.59 279.376 2225.87 283.566 Q2221.15 287.756 2211.15 287.756 L2201.54 287.756 L2201.54 253.196 Z" fill="#000000" fill-rule="evenodd" fill-opacity="1" /><polyline clip-path="url(#clip160)" style="stroke:#3da44d; stroke-linecap:butt; stroke-linejoin:round; stroke-width:4; stroke-opacity:1; fill:none" points="
  1932.99,322.316 2073.18,322.316 
  "/>
<circle clip-path="url(#clip160)" cx="2003.09" cy="322.316" r="23" fill="#3da44d" fill-rule="evenodd" fill-opacity="1" stroke="#000000" stroke-opacity="1" stroke-width="5.12"/>
<path clip-path="url(#clip160)" d="M2101.22 323.091 L2101.22 335.753 L2108.72 335.753 Q2112.49 335.753 2114.29 334.202 Q2116.12 332.628 2116.12 329.411 Q2116.12 326.17 2114.29 324.642 Q2112.49 323.091 2108.72 323.091 L2101.22 323.091 M2101.22 308.878 L2101.22 319.295 L2108.14 319.295 Q2111.56 319.295 2113.23 318.022 Q2114.92 316.725 2114.92 314.087 Q2114.92 311.471 2113.23 310.175 Q2111.56 308.878 2108.14 308.878 L2101.22 308.878 M2096.54 305.036 L2108.48 305.036 Q2113.83 305.036 2116.73 307.258 Q2119.62 309.48 2119.62 313.577 Q2119.62 316.749 2118.14 318.624 Q2116.66 320.499 2113.79 320.962 Q2117.23 321.702 2119.13 324.063 Q2121.05 326.401 2121.05 329.92 Q2121.05 334.549 2117.91 337.073 Q2114.76 339.596 2108.95 339.596 L2096.54 339.596 L2096.54 305.036 Z" fill="#000000" fill-rule="evenodd" fill-opacity="1" /><path clip-path="url(#clip160)" d="M2154.11 307.698 L2154.11 312.628 Q2151.75 310.429 2149.06 309.341 Q2146.4 308.253 2143.39 308.253 Q2137.47 308.253 2134.32 311.888 Q2131.17 315.499 2131.17 322.35 Q2131.17 329.179 2134.32 332.813 Q2137.47 336.424 2143.39 336.424 Q2146.4 336.424 2149.06 335.336 Q2151.75 334.249 2154.11 332.049 L2154.11 336.934 Q2151.66 338.6 2148.9 339.434 Q2146.17 340.267 2143.11 340.267 Q2135.27 340.267 2130.75 335.475 Q2126.24 330.661 2126.24 322.35 Q2126.24 314.017 2130.75 309.226 Q2135.27 304.411 2143.11 304.411 Q2146.22 304.411 2148.95 305.244 Q2151.7 306.054 2154.11 307.698 Z" fill="#000000" fill-rule="evenodd" fill-opacity="1" /><path clip-path="url(#clip160)" d="M2166.01 308.878 L2166.01 335.753 L2171.66 335.753 Q2178.81 335.753 2182.12 332.512 Q2185.45 329.272 2185.45 322.281 Q2185.45 315.337 2182.12 312.119 Q2178.81 308.878 2171.66 308.878 L2166.01 308.878 M2161.33 305.036 L2170.94 305.036 Q2180.98 305.036 2185.68 309.226 Q2190.38 313.392 2190.38 322.281 Q2190.38 331.216 2185.66 335.406 Q2180.94 339.596 2170.94 339.596 L2161.33 339.596 L2161.33 305.036 Z" fill="#000000" fill-rule="evenodd" fill-opacity="1" /><polyline clip-path="url(#clip160)" style="stroke:#c271d2; stroke-linecap:butt; stroke-linejoin:round; stroke-width:4; stroke-opacity:1; fill:none" points="
  1932.99,374.156 2073.18,374.156 
  "/>
<circle clip-path="url(#clip160)" cx="2003.09" cy="374.156" r="23" fill="#c271d2" fill-rule="evenodd" fill-opacity="1" stroke="#000000" stroke-opacity="1" stroke-width="5.12"/>
<path clip-path="url(#clip160)" d="M2115.45 369.445 L2115.45 355.417 L2119.71 355.417 L2119.71 391.436 L2115.45 391.436 L2115.45 387.547 Q2114.11 389.862 2112.05 390.996 Q2110.01 392.107 2107.14 392.107 Q2102.44 392.107 2099.48 388.357 Q2096.54 384.607 2096.54 378.496 Q2096.54 372.385 2099.48 368.635 Q2102.44 364.885 2107.14 364.885 Q2110.01 364.885 2112.05 366.019 Q2114.11 367.13 2115.45 369.445 M2100.94 378.496 Q2100.94 383.195 2102.86 385.88 Q2104.8 388.542 2108.18 388.542 Q2111.56 388.542 2113.51 385.88 Q2115.45 383.195 2115.45 378.496 Q2115.45 373.797 2113.51 371.135 Q2111.56 368.45 2108.18 368.45 Q2104.8 368.45 2102.86 371.135 Q2100.94 373.797 2100.94 378.496 Z" fill="#000000" fill-rule="evenodd" fill-opacity="1" /><path clip-path="url(#clip160)" d="M2142.7 360.047 Q2137.6 360.047 2134.6 363.843 Q2131.61 367.64 2131.61 374.19 Q2131.61 380.718 2134.6 384.514 Q2137.6 388.311 2142.7 388.311 Q2147.79 388.311 2150.75 384.514 Q2153.74 380.718 2153.74 374.19 Q2153.74 367.64 2150.75 363.843 Q2147.79 360.047 2142.7 360.047 M2149.25 390.811 L2155.41 397.547 L2149.76 397.547 L2144.64 392.014 Q2143.88 392.061 2143.46 392.084 Q2143.07 392.107 2142.7 392.107 Q2135.41 392.107 2131.03 387.246 Q2126.68 382.362 2126.68 374.19 Q2126.68 365.996 2131.03 361.135 Q2135.41 356.251 2142.7 356.251 Q2149.97 356.251 2154.32 361.135 Q2158.67 365.996 2158.67 374.19 Q2158.67 380.209 2156.24 384.491 Q2153.83 388.774 2149.25 390.811 Z" fill="#000000" fill-rule="evenodd" fill-opacity="1" /><path clip-path="url(#clip160)" d="M2165.98 356.876 L2172.95 356.876 L2181.77 380.394 L2190.64 356.876 L2197.6 356.876 L2197.6 391.436 L2193.04 391.436 L2193.04 361.089 L2184.13 384.792 L2179.43 384.792 L2170.52 361.089 L2170.52 391.436 L2165.98 391.436 L2165.98 356.876 Z" fill="#000000" fill-rule="evenodd" fill-opacity="1" /><path clip-path="url(#clip160)" d="M2211.56 360.718 L2211.56 387.593 L2217.21 387.593 Q2224.36 387.593 2227.67 384.352 Q2231.01 381.112 2231.01 374.121 Q2231.01 367.177 2227.67 363.959 Q2224.36 360.718 2217.21 360.718 L2211.56 360.718 M2206.89 356.876 L2216.49 356.876 Q2226.54 356.876 2231.24 361.066 Q2235.94 365.232 2235.94 374.121 Q2235.94 383.056 2231.22 387.246 Q2226.49 391.436 2216.49 391.436 L2206.89 391.436 L2206.89 356.876 Z" fill="#000000" fill-rule="evenodd" fill-opacity="1" /><polyline clip-path="url(#clip160)" style="stroke:#ac8d18; stroke-linecap:butt; stroke-linejoin:round; stroke-width:4; stroke-opacity:1; fill:none" points="
  1932.99,425.996 2073.18,425.996 
  "/>
<circle clip-path="url(#clip160)" cx="2003.09" cy="425.996" r="23" fill="#ac8d18" fill-rule="evenodd" fill-opacity="1" stroke="#000000" stroke-opacity="1" stroke-width="5.12"/>
<path clip-path="url(#clip160)" d="M2096.54 408.716 L2101.22 408.716 L2101.22 443.276 L2096.54 443.276 L2096.54 408.716 Z" fill="#000000" fill-rule="evenodd" fill-opacity="1" /><path clip-path="url(#clip160)" d="M2131.89 427.628 L2131.89 443.276 L2127.63 443.276 L2127.63 427.767 Q2127.63 424.086 2126.19 422.257 Q2124.76 420.429 2121.89 420.429 Q2118.44 420.429 2116.45 422.628 Q2114.46 424.827 2114.46 428.623 L2114.46 443.276 L2110.17 443.276 L2110.17 417.35 L2114.46 417.35 L2114.46 421.378 Q2115.98 419.04 2118.04 417.882 Q2120.13 416.725 2122.84 416.725 Q2127.3 416.725 2129.6 419.503 Q2131.89 422.257 2131.89 427.628 Z" fill="#000000" fill-rule="evenodd" fill-opacity="1" /><path clip-path="url(#clip160)" d="M2144.6 409.989 L2144.6 417.35 L2153.37 417.35 L2153.37 420.66 L2144.6 420.66 L2144.6 434.734 Q2144.6 437.905 2145.45 438.808 Q2146.33 439.711 2148.99 439.711 L2153.37 439.711 L2153.37 443.276 L2148.99 443.276 Q2144.06 443.276 2142.19 441.447 Q2140.31 439.595 2140.31 434.734 L2140.31 420.66 L2137.19 420.66 L2137.19 417.35 L2140.31 417.35 L2140.31 409.989 L2144.6 409.989 Z" fill="#000000" fill-rule="evenodd" fill-opacity="1" /><path clip-path="url(#clip160)" d="M2181.15 429.248 L2181.15 431.331 L2161.56 431.331 Q2161.84 435.729 2164.2 438.044 Q2166.59 440.336 2170.82 440.336 Q2173.28 440.336 2175.57 439.734 Q2177.88 439.132 2180.15 437.929 L2180.15 441.956 Q2177.86 442.928 2175.45 443.438 Q2173.04 443.947 2170.57 443.947 Q2164.36 443.947 2160.73 440.336 Q2157.12 436.725 2157.12 430.567 Q2157.12 424.202 2160.54 420.475 Q2163.99 416.725 2169.83 416.725 Q2175.06 416.725 2178.09 420.105 Q2181.15 423.461 2181.15 429.248 M2176.89 427.998 Q2176.84 424.503 2174.92 422.419 Q2173.02 420.336 2169.87 420.336 Q2166.31 420.336 2164.16 422.35 Q2162.03 424.364 2161.7 428.021 L2176.89 427.998 Z" fill="#000000" fill-rule="evenodd" fill-opacity="1" /><path clip-path="url(#clip160)" d="M2203.16 421.331 Q2202.44 420.915 2201.59 420.73 Q2200.75 420.521 2199.73 420.521 Q2196.12 420.521 2194.18 422.882 Q2192.26 425.22 2192.26 429.618 L2192.26 443.276 L2187.97 443.276 L2187.97 417.35 L2192.26 417.35 L2192.26 421.378 Q2193.6 419.017 2195.75 417.882 Q2197.91 416.725 2200.98 416.725 Q2201.42 416.725 2201.96 416.794 Q2202.49 416.841 2203.14 416.956 L2203.16 421.331 Z" fill="#000000" fill-rule="evenodd" fill-opacity="1" /><polyline clip-path="url(#clip160)" style="stroke:#00a9ad; stroke-linecap:butt; stroke-linejoin:round; stroke-width:4; stroke-opacity:1; fill:none" points="
  1932.99,477.836 2073.18,477.836 
  "/>
<circle clip-path="url(#clip160)" cx="2003.09" cy="477.836" r="23" fill="#00a9ad" fill-rule="evenodd" fill-opacity="1" stroke="#000000" stroke-opacity="1" stroke-width="5.12"/>
<path clip-path="url(#clip160)" d="M2115.45 473.125 L2115.45 459.097 L2119.71 459.097 L2119.71 495.116 L2115.45 495.116 L2115.45 491.227 Q2114.11 493.542 2112.05 494.676 Q2110.01 495.787 2107.14 495.787 Q2102.44 495.787 2099.48 492.037 Q2096.54 488.287 2096.54 482.176 Q2096.54 476.065 2099.48 472.315 Q2102.44 468.565 2107.14 468.565 Q2110.01 468.565 2112.05 469.699 Q2114.11 470.81 2115.45 473.125 M2100.94 482.176 Q2100.94 486.875 2102.86 489.56 Q2104.8 492.222 2108.18 492.222 Q2111.56 492.222 2113.51 489.56 Q2115.45 486.875 2115.45 482.176 Q2115.45 477.477 2113.51 474.815 Q2111.56 472.13 2108.18 472.13 Q2104.8 472.13 2102.86 474.815 Q2100.94 477.477 2100.94 482.176 Z" fill="#000000" fill-rule="evenodd" fill-opacity="1" /><path clip-path="url(#clip160)" d="M2128.67 460.556 L2133.35 460.556 L2133.35 495.116 L2128.67 495.116 L2128.67 460.556 Z" fill="#000000" fill-rule="evenodd" fill-opacity="1" /><path clip-path="url(#clip160)" d="M2164.02 479.468 L2164.02 495.116 L2159.76 495.116 L2159.76 479.607 Q2159.76 475.926 2158.32 474.097 Q2156.89 472.269 2154.02 472.269 Q2150.57 472.269 2148.58 474.468 Q2146.59 476.667 2146.59 480.463 L2146.59 495.116 L2142.3 495.116 L2142.3 469.19 L2146.59 469.19 L2146.59 473.218 Q2148.11 470.88 2150.17 469.722 Q2152.26 468.565 2154.97 468.565 Q2159.43 468.565 2161.73 471.343 Q2164.02 474.097 2164.02 479.468 Z" fill="#000000" fill-rule="evenodd" fill-opacity="1" /><path clip-path="url(#clip160)" d="M2176.73 461.829 L2176.73 469.19 L2185.5 469.19 L2185.5 472.5 L2176.73 472.5 L2176.73 486.574 Q2176.73 489.745 2177.58 490.648 Q2178.46 491.551 2181.12 491.551 L2185.5 491.551 L2185.5 495.116 L2181.12 495.116 Q2176.19 495.116 2174.32 493.287 Q2172.44 491.435 2172.44 486.574 L2172.44 472.5 L2169.32 472.5 L2169.32 469.19 L2172.44 469.19 L2172.44 461.829 L2176.73 461.829 Z" fill="#000000" fill-rule="evenodd" fill-opacity="1" /><path clip-path="url(#clip160)" d="M2213.28 481.088 L2213.28 483.171 L2193.69 483.171 Q2193.97 487.569 2196.33 489.884 Q2198.72 492.176 2202.95 492.176 Q2205.41 492.176 2207.7 491.574 Q2210.01 490.972 2212.28 489.769 L2212.28 493.796 Q2209.99 494.768 2207.58 495.278 Q2205.17 495.787 2202.7 495.787 Q2196.49 495.787 2192.86 492.176 Q2189.25 488.565 2189.25 482.407 Q2189.25 476.042 2192.67 472.315 Q2196.12 468.565 2201.96 468.565 Q2207.19 468.565 2210.22 471.945 Q2213.28 475.301 2213.28 481.088 M2209.02 479.838 Q2208.97 476.343 2207.05 474.259 Q2205.15 472.176 2202 472.176 Q2198.44 472.176 2196.29 474.19 Q2194.16 476.204 2193.83 479.861 L2209.02 479.838 Z" fill="#000000" fill-rule="evenodd" fill-opacity="1" /><path clip-path="url(#clip160)" d="M2235.29 473.171 Q2234.57 472.755 2233.72 472.57 Q2232.88 472.361 2231.86 472.361 Q2228.25 472.361 2226.31 474.722 Q2224.39 477.06 2224.39 481.458 L2224.39 495.116 L2220.1 495.116 L2220.1 469.19 L2224.39 469.19 L2224.39 473.218 Q2225.73 470.857 2227.88 469.722 Q2230.03 468.565 2233.11 468.565 Q2233.55 468.565 2234.09 468.634 Q2234.62 468.681 2235.27 468.796 L2235.29 473.171 Z" fill="#000000" fill-rule="evenodd" fill-opacity="1" /><polyline clip-path="url(#clip160)" style="stroke:#ed5d92; stroke-linecap:butt; stroke-linejoin:round; stroke-width:4; stroke-opacity:1; fill:none" points="
  1932.99,529.676 2073.18,529.676 
  "/>
<circle clip-path="url(#clip160)" cx="2003.09" cy="529.676" r="23" fill="#ed5d92" fill-rule="evenodd" fill-opacity="1" stroke="#000000" stroke-opacity="1" stroke-width="5.12"/>
<path clip-path="url(#clip160)" d="M2122.1 542.025 L2122.1 532.743 L2114.46 532.743 L2114.46 528.9 L2126.73 528.9 L2126.73 543.738 Q2124.02 545.659 2120.75 546.655 Q2117.49 547.627 2113.79 547.627 Q2105.68 547.627 2101.1 542.905 Q2096.54 538.159 2096.54 529.71 Q2096.54 521.238 2101.1 516.516 Q2105.68 511.771 2113.79 511.771 Q2117.17 511.771 2120.2 512.604 Q2123.25 513.437 2125.82 515.058 L2125.82 520.035 Q2123.23 517.836 2120.31 516.724 Q2117.4 515.613 2114.18 515.613 Q2107.84 515.613 2104.64 519.155 Q2101.47 522.697 2101.47 529.71 Q2101.47 536.701 2104.64 540.243 Q2107.84 543.784 2114.18 543.784 Q2116.66 543.784 2118.6 543.368 Q2120.54 542.928 2122.1 542.025 Z" fill="#000000" fill-rule="evenodd" fill-opacity="1" /><path clip-path="url(#clip160)" d="M2150.1 525.011 Q2149.39 524.595 2148.53 524.41 Q2147.7 524.201 2146.68 524.201 Q2143.07 524.201 2141.12 526.562 Q2139.2 528.9 2139.2 533.298 L2139.2 546.956 L2134.92 546.956 L2134.92 521.03 L2139.2 521.03 L2139.2 525.058 Q2140.54 522.697 2142.7 521.562 Q2144.85 520.405 2147.93 520.405 Q2148.37 520.405 2148.9 520.474 Q2149.43 520.521 2150.08 520.636 L2150.1 525.011 Z" fill="#000000" fill-rule="evenodd" fill-opacity="1" /><path clip-path="url(#clip160)" d="M2175.71 532.928 L2175.71 535.011 L2156.12 535.011 Q2156.4 539.409 2158.76 541.724 Q2161.15 544.016 2165.38 544.016 Q2167.84 544.016 2170.13 543.414 Q2172.44 542.812 2174.71 541.609 L2174.71 545.636 Q2172.42 546.608 2170.01 547.118 Q2167.6 547.627 2165.13 547.627 Q2158.92 547.627 2155.29 544.016 Q2151.68 540.405 2151.68 534.247 Q2151.68 527.882 2155.1 524.155 Q2158.55 520.405 2164.39 520.405 Q2169.62 520.405 2172.65 523.785 Q2175.71 527.141 2175.71 532.928 M2171.45 531.678 Q2171.4 528.183 2169.48 526.099 Q2167.58 524.016 2164.43 524.016 Q2160.87 524.016 2158.72 526.03 Q2156.59 528.044 2156.26 531.701 L2171.45 531.678 Z" fill="#000000" fill-rule="evenodd" fill-opacity="1" /><path clip-path="url(#clip160)" d="M2204.87 532.928 L2204.87 535.011 L2185.29 535.011 Q2185.57 539.409 2187.93 541.724 Q2190.31 544.016 2194.55 544.016 Q2197 544.016 2199.29 543.414 Q2201.61 542.812 2203.88 541.609 L2203.88 545.636 Q2201.59 546.608 2199.18 547.118 Q2196.77 547.627 2194.29 547.627 Q2188.09 547.627 2184.46 544.016 Q2180.85 540.405 2180.85 534.247 Q2180.85 527.882 2184.27 524.155 Q2187.72 520.405 2193.55 520.405 Q2198.79 520.405 2201.82 523.785 Q2204.87 527.141 2204.87 532.928 M2200.61 531.678 Q2200.57 528.183 2198.65 526.099 Q2196.75 524.016 2193.6 524.016 Q2190.04 524.016 2187.88 526.03 Q2185.75 528.044 2185.43 531.701 L2200.61 531.678 Z" fill="#000000" fill-rule="evenodd" fill-opacity="1" /><path clip-path="url(#clip160)" d="M2233.41 531.308 L2233.41 546.956 L2229.16 546.956 L2229.16 531.447 Q2229.16 527.766 2227.72 525.937 Q2226.28 524.109 2223.41 524.109 Q2219.97 524.109 2217.97 526.308 Q2215.98 528.507 2215.98 532.303 L2215.98 546.956 L2211.7 546.956 L2211.7 521.03 L2215.98 521.03 L2215.98 525.058 Q2217.51 522.72 2219.57 521.562 Q2221.66 520.405 2224.36 520.405 Q2228.83 520.405 2231.12 523.183 Q2233.41 525.937 2233.41 531.308 Z" fill="#000000" fill-rule="evenodd" fill-opacity="1" /></svg>
